<?xml version="1.0" encoding="UTF-8" standalone="no"?>
<!-- Created with Inkscape (http://www.inkscape.org/) -->
<svg
   xmlns:dc="http://purl.org/dc/elements/1.1/"
   xmlns:cc="http://web.resource.org/cc/"
   xmlns:rdf="http://www.w3.org/1999/02/22-rdf-syntax-ns#"
   xmlns:svg="http://www.w3.org/2000/svg"
   xmlns="http://www.w3.org/2000/svg"
   xmlns:xlink="http://www.w3.org/1999/xlink"
   xmlns:sodipodi="http://sodipodi.sourceforge.net/DTD/sodipodi-0.dtd"
   xmlns:inkscape="http://www.inkscape.org/namespaces/inkscape"
   width="534.125"
   height="638.125"
   id="svg2"
   sodipodi:version="0.32"
   inkscape:version="0.45.1"
   version="1.0"
   sodipodi:docbase="C:\Documents and Settings\Edmund\Desktop"
   sodipodi:docname="crest.svg"
   inkscape:output_extension="org.inkscape.output.svg.inkscape">
  <defs
     id="defs4">
    <linearGradient
       id="linearGradient3314">
      <stop
         style="stop-color:#dfc662;stop-opacity:1;"
         offset="0"
         id="stop3316" />
      <stop
         style="stop-color:#d18d2b;stop-opacity:1;"
         offset="1"
         id="stop3318" />
    </linearGradient>
    <clipPath
       id="clip0">
      <rect
         y="0"
         x="0"
         width="534"
         height="638"
         id="rect2165" />
    </clipPath>
    <linearGradient
       id="linearGradient4789">
      <stop
         id="stop4791"
         offset="0"
         style="stop-color:#00a000;stop-opacity:1;" />
      <stop
         id="stop4793"
         offset="1"
         style="stop-color:#00a000;stop-opacity:1;" />
    </linearGradient>
    <radialGradient
       inkscape:collect="always"
       xlink:href="#linearGradient3314"
       id="radialGradient3322"
       cx="284.9928"
       cy="304.82712"
       fx="284.9928"
       fy="304.82712"
       r="105.60663"
       gradientTransform="matrix(1,0,0,1.0687378,0,-20.953154)"
       gradientUnits="userSpaceOnUse" />
    <radialGradient
       inkscape:collect="always"
       xlink:href="#linearGradient3314"
       id="radialGradient3330"
       cx="531.34314"
       cy="304.8093"
       fx="531.34314"
       fy="304.8093"
       r="105.59444"
       gradientTransform="matrix(1,0,0,1.0688028,0,-20.971732)"
       gradientUnits="userSpaceOnUse" />
    <radialGradient
       inkscape:collect="always"
       xlink:href="#linearGradient3314"
       id="radialGradient4307"
       cx="399.39334"
       cy="559.39508"
       fx="399.39334"
       fy="559.39508"
       r="118.39694"
       gradientTransform="matrix(1,0,0,1.0901047,0,-50.404128)"
       gradientUnits="userSpaceOnUse" />
  </defs>
  <sodipodi:namedview
     id="base"
     pagecolor="#ffffff"
     bordercolor="#666666"
     borderopacity="1.0"
     gridtolerance="10000"
     guidetolerance="10"
     objecttolerance="10"
     inkscape:pageopacity="0.0"
     inkscape:pageshadow="2"
     inkscape:zoom="0.7"
     inkscape:cx="346.99938"
     inkscape:cy="503.87416"
     inkscape:document-units="px"
     inkscape:current-layer="layer1"
     inkscape:window-width="1440"
     inkscape:window-height="844"
     inkscape:window-x="-4"
     inkscape:window-y="-4" />
  <metadata
     id="metadata7">
    <rdf:RDF>
      <cc:Work
         rdf:about="">
        <dc:format>image/svg+xml</dc:format>
        <dc:type
           rdf:resource="http://purl.org/dc/dcmitype/StillImage" />
      </cc:Work>
    </rdf:RDF>
  </metadata>
  <g
     inkscape:label="Layer 1"
     inkscape:groupmode="layer"
     id="layer1"
     transform="translate(-138.65179,-164.72825)">
    <path
       style="fill:none;stroke:#ffffff;stroke-width:0.1;stroke-linecap:butt;stroke-linejoin:miter;stroke-miterlimit:10"
       d="M 138.71429,164.79075 L 672.71429,164.79075 L 672.71429,166.34199 C 656.72123,165.83057 640.69932,166.26811 624.69598,166.12279 C 464.3067,166.14635 303.9172,166.07559 143.5283,166.15817 C 143.5681,284.70647 143.50914,403.25496 143.5577,521.80315 C 144.5189,557.75699 152.32701,593.80244 168.15954,626.19927 C 179.52687,649.41994 195.79765,670.46336 216.58291,685.9929 C 244.08754,706.82926 274.36375,723.61537 304.67756,739.94918 C 327.97184,752.4395 351.65324,764.1857 375.11814,776.34916 C 386.24243,782.3186 397.79875,787.72083 407.90504,795.37322 C 420.63311,786.09726 435.04568,779.51641 448.904,772.14978 C 485.47528,753.4032 522.27359,734.98879 557.51623,713.79975 C 573.98388,703.82801 590.20422,693.32408 605.09046,681.0781 C 629.19482,661.20169 646.21134,633.83751 656.86703,604.69832 C 665.19006,581.9254 670.08554,557.93284 671.79304,533.76064 C 672.03675,530.35816 672.05796,526.92829 672.71429,523.57264 L 672.71429,802.79076 L 138.71429,802.79076 L 138.71429,164.79075 z "
       id="path2168" />
    <path
       style="fill:#ffffff;fill-rule:nonzero;stroke:none"
       d="M 138.71429,164.79075 L 672.71429,164.79075 L 672.71429,166.34199 C 656.72123,165.83057 640.69932,166.26811 624.69598,166.12279 C 464.3067,166.14635 303.9172,166.07559 143.5283,166.15817 C 143.5681,284.70647 143.50914,403.25496 143.5577,521.80315 C 144.5189,557.75699 152.32701,593.80244 168.15954,626.19927 C 179.52687,649.41994 195.79765,670.46336 216.58291,685.9929 C 244.08754,706.82926 274.36375,723.61537 304.67756,739.94918 C 327.97184,752.4395 351.65324,764.1857 375.11814,776.34916 C 386.24243,782.3186 397.79875,787.72083 407.90504,795.37322 C 420.63311,786.09726 435.04568,779.51641 448.904,772.14978 C 485.47528,753.4032 522.27359,734.98879 557.51623,713.79975 C 573.98388,703.82801 590.20422,693.32408 605.09046,681.0781 C 629.19482,661.20169 646.21134,633.83751 656.86703,604.69832 C 665.19006,581.9254 670.08554,557.93284 671.79304,533.76064 C 672.03675,530.35816 672.05796,526.92829 672.71429,523.57264 L 672.71429,802.79076 L 138.71429,802.79076 L 138.71429,164.79075 z "
       id="path2170" />
    <path
       style="fill:none;stroke:#000000;stroke-width:0.1;stroke-linecap:butt;stroke-linejoin:miter;stroke-miterlimit:10"
       d="M 143.5283,166.15817 C 303.9172,166.07559 464.3067,166.14635 624.69598,166.12279 C 640.69932,166.26811 656.72123,165.83057 672.71429,166.34199 L 672.71429,523.57264 C 672.05796,526.92829 672.03675,530.35816 671.79304,533.76064 C 670.08554,557.93284 665.19006,581.9254 656.86703,604.69832 C 646.21134,633.83751 629.19482,661.20169 605.09046,681.0781 C 590.20422,693.32408 573.98388,703.82801 557.51623,713.79975 C 522.27359,734.98879 485.47528,753.4032 448.904,772.14978 C 435.04568,779.51641 420.63311,786.09726 407.90504,795.37322 C 397.79875,787.72083 386.24243,782.3186 375.11814,776.34916 C 351.65324,764.1857 327.97184,752.4395 304.67756,739.94918 C 274.36375,723.61537 244.08754,706.82926 216.58291,685.9929 C 195.79765,670.46336 179.52687,649.41994 168.15954,626.19927 C 152.32701,593.80244 144.5189,557.75699 143.5577,521.80315 C 143.50914,403.25496 143.5681,284.70647 143.5283,166.15817 z "
       id="path2172" />
    <path
       style="fill:#000000;fill-rule:nonzero;stroke:none"
       d="M 143.5283,166.15817 C 303.9172,166.07559 464.3067,166.14635 624.69598,166.12279 C 640.69932,166.26811 656.72123,165.83057 672.71429,166.34199 L 672.71429,523.57264 C 672.05796,526.92829 672.03675,530.35816 671.79304,533.76064 C 670.08554,557.93284 665.19006,581.9254 656.86703,604.69832 C 646.21134,633.83751 629.19482,661.20169 605.09046,681.0781 C 590.20422,693.32408 573.98388,703.82801 557.51623,713.79975 C 522.27359,734.98879 485.47528,753.4032 448.904,772.14978 C 435.04568,779.51641 420.63311,786.09726 407.90504,795.37322 C 397.79875,787.72083 386.24243,782.3186 375.11814,776.34916 C 351.65324,764.1857 327.97184,752.4395 304.67756,739.94918 C 274.36375,723.61537 244.08754,706.82926 216.58291,685.9929 C 195.79765,670.46336 179.52687,649.41994 168.15954,626.19927 C 152.32701,593.80244 144.5189,557.75699 143.5577,521.80315 C 143.50914,403.25496 143.5681,284.70647 143.5283,166.15817 z "
       id="path2174" />
    <path
       style="fill:none;stroke:#ffffff;stroke-width:0.1;stroke-linecap:butt;stroke-linejoin:miter;stroke-miterlimit:10"
       d="M 149.89653,172.3519 C 321.92732,172.35068 493.95793,172.35496 665.9888,172.34975 C 665.99369,284.52265 665.98956,396.69535 665.99086,508.86834 C 666.36007,525.43478 665.42445,542.04212 662.5464,558.37695 C 656.20634,595.31914 642.3849,631.99574 617.36575,660.42453 C 604.37458,675.35863 587.94482,686.72591 571.55244,697.58681 C 538.40892,719.01085 503.32821,737.2051 468.23747,755.1818 C 448.03343,765.78469 427.23309,775.3742 407.89817,787.54468 C 392.83068,777.77922 376.51847,770.14689 360.64173,761.82067 C 321.94363,742.04392 283.06483,722.40432 246.3601,699.05329 C 232.0213,689.70534 217.67672,680.08458 205.42625,668.04279 C 185.29335,648.14303 171.42773,622.65335 162.57476,595.94156 C 155.96267,575.86052 151.9568,554.9459 150.38359,533.87188 C 149.72949,524.1869 149.92958,514.47669 149.90011,504.77894 C 149.89764,393.96981 149.9048,283.16095 149.89653,172.3519 z "
       id="path2176" />
    <path
       style="fill:#008000;fill-opacity:1;fill-rule:nonzero;stroke:none"
       d="M 149.89653,172.3519 C 321.92732,172.35068 493.95793,172.35496 665.9888,172.34975 C 665.99369,284.52265 665.98956,396.69535 665.99086,508.86834 C 666.36007,525.43478 665.42445,542.04212 662.5464,558.37695 C 656.20634,595.31914 642.3849,631.99574 617.36575,660.42453 C 604.37458,675.35863 587.94482,686.72591 571.55244,697.58681 C 538.40892,719.01085 503.32821,737.2051 468.23747,755.1818 C 448.03343,765.78469 427.23309,775.3742 407.89817,787.54468 C 392.83068,777.77922 376.51847,770.14689 360.64173,761.82067 C 321.94363,742.04392 283.06483,722.40432 246.3601,699.05329 C 232.0213,689.70534 217.67672,680.08458 205.42625,668.04279 C 185.29335,648.14303 171.42773,622.65335 162.57476,595.94156 C 155.96267,575.86052 151.9568,554.9459 150.38359,533.87188 C 149.72949,524.1869 149.92958,514.47669 149.90011,504.77894 C 149.89764,393.96981 149.9048,283.16095 149.89653,172.3519 z "
       id="path2178" />
    <path
       style="fill:none;stroke:#000000;stroke-width:0.1;stroke-linecap:butt;stroke-linejoin:miter;stroke-miterlimit:10"
       d="M 316.42898,191.57774 C 322.89637,188.88199 329.88192,187.75815 336.83331,187.2453 C 336.83044,190.15022 336.8325,193.0551 336.83023,195.96046 C 332.07611,197.72441 326.76831,198.75151 322.84266,202.134 C 327.53512,202.89935 332.2429,201.89804 336.82724,200.94246 C 350.18745,198.01913 363.34381,193.44795 377.1475,193.19423 C 378.47064,195.83856 379.68249,199.80473 376.68933,201.79781 C 372.22802,204.48949 366.73608,203.05862 361.81797,203.68471 C 364.83934,205.94856 368.38177,207.32571 371.63424,209.20409 C 375.07789,211.12697 378.11392,213.66727 381.23138,216.06312 C 379.94085,218.72208 377.90066,220.87781 375.56053,222.64288 C 360.3056,215.81711 343.58439,210.75337 326.70199,212.72188 C 308.41873,214.64247 291.98376,223.528 275.88255,231.7529 C 274.8271,232.41165 273.43917,232.76584 272.76304,233.88397 C 279.50289,236.11755 286.70291,236.39967 293.74136,236.05078 C 310.1577,235.05962 326.29602,231.54756 342.69039,230.33044 C 354.28601,229.5479 366.31929,229.78476 377.19368,234.36616 C 376.30636,236.31474 376.00534,238.42941 375.89888,240.54886 C 369.12396,241.53729 362.31106,242.25555 355.55598,243.37001 C 357.94342,248.82091 364.02391,251.32005 367.09226,256.37631 C 364.8789,257.77759 362.77061,259.33562 360.76573,261.0186 C 352.79499,258.12097 345.64265,252.849 341.37373,245.41948 C 337.09034,245.77598 332.78813,246.01968 328.53118,246.59926 C 328.49913,250.11238 329.36862,253.53441 330.21078,256.91811 C 329.45227,257.80591 328.94339,258.82097 328.68415,259.96329 C 326.39167,260.52891 324.10885,261.1232 321.83558,261.7513 C 318.22071,257.94691 315.14145,253.60141 313.87751,248.42789 C 291.90164,248.46069 269.98358,246.68139 248.0504,245.57695 C 250.2241,249.29271 251.12939,253.56445 251.09768,257.84378 C 248.87242,258.49466 246.69867,259.30363 244.58647,260.25684 C 245.71905,264.75333 249.66661,267.56742 253.2637,270.07136 C 261.3049,275.33381 271.20063,276.64828 280.62368,276.45464 C 302.83575,276.01244 324.39561,268.86376 346.66714,269.24556 C 356.31831,269.38162 366.30223,271.46689 374.25795,277.19508 C 380.43487,281.45474 384.94593,287.69004 388.19484,294.37522 C 389.89723,298.28857 394.65754,300.85009 394.07981,305.57769 C 389.83143,305.87373 385.39334,306.45898 381.45834,304.39124 C 386.45749,317.75868 384.67582,332.74889 390.54982,345.85501 C 391.74949,348.92413 394.7819,351.25392 394.77978,354.7463 C 394.5057,360.26806 392.44332,365.47687 390.47274,370.57607 C 383.87631,386.83103 375.45935,402.26148 368.40609,418.31162 C 366.56829,422.13344 367.38108,426.45026 367.29733,430.5287 C 362.80754,430.43714 358.25949,431.54212 353.81938,430.59159 C 351.45488,429.16527 347.70729,426.56181 349.41037,423.38926 C 356.63659,408.59412 363.68547,393.5896 368.24131,377.72134 C 369.4288,372.93162 370.95416,368.02123 370.49,363.04409 C 367.74832,360.26019 364.30285,358.3355 360.9515,356.39646 C 359.79765,360.22537 358.18376,363.89854 356.22445,367.38294 C 349.24398,380.06614 341.16459,392.15447 335.04882,405.30551 C 332.12814,411.63311 329.53869,418.24074 328.82919,425.22992 C 325.10266,425.13131 321.37118,424.86597 317.64921,425.17919 C 316.27584,423.40581 314.84565,421.6821 313.49107,419.89983 C 321.26242,403.89285 330.58393,388.3336 334.81752,370.89416 C 335.98172,364.83574 337.37866,357.56147 333.05772,352.3864 C 329.41763,347.72292 325.60714,343.01964 320.93887,339.36318 C 304.44837,342.64913 287.77465,345.08036 270.99658,346.34875 C 261.15945,365.15016 250.43949,383.5528 242.33664,403.20516 C 239.38664,410.62502 236.42099,418.28363 236.3446,426.38442 C 231.43245,426.32326 226.52047,426.35852 221.60893,426.35561 C 219.89903,421.8416 221.24133,417.02299 222.59767,412.6129 C 225.94299,402.19666 230.51735,392.23569 235.02474,382.28561 C 236.23127,379.51902 237.85786,376.82545 238.10215,373.75187 C 239.30445,362.97035 240.53164,352.18568 242.22876,341.46941 C 239.93159,339.02341 237.53572,336.67385 235.02864,334.44576 C 223.35818,338.24376 211.45811,341.37674 199.38964,343.62323 C 197.38853,348.97758 196.56283,354.80526 198.18653,360.38562 C 200.0606,361.4706 201.96438,362.50302 203.88598,363.50577 C 204.24058,366.2978 204.25875,369.30387 205.71611,371.80657 C 208.11367,375.14019 212.6072,375.12487 216.19476,376.11591 C 216.70198,380.20301 216.97634,384.87022 214.35688,388.34832 C 212.41624,391.01883 208.91293,392.1075 205.72918,391.84188 C 196.11407,382.52544 186.95193,372.11974 181.76133,359.6166 C 178.12202,351.10938 178.32421,340.59356 184.26457,333.15752 C 192.46202,322.70583 205.5733,318.04729 217.81762,314.20385 C 212.09764,304.77423 209.85397,293.88846 206.13028,283.64231 C 200.96716,269.48025 189.25199,259.1382 177.28848,250.62999 C 177.27955,247.66992 177.46627,244.71596 177.54296,241.75941 C 177.72389,238.71226 175.79798,236.17874 174.47007,233.6124 C 176.38876,229.99914 180.26207,228.17305 184.1477,227.53514 C 196.02267,225.48708 208.09336,227.06474 220.00166,227.9429 C 225.0574,222.08035 229.76556,215.73239 236.09455,211.09337 C 245.1286,203.89348 256.1698,199.81312 267.31163,197.20543 C 267.2998,200.30841 267.17536,203.65469 265.22406,206.23724 C 260.49284,212.80164 252.09799,215.1889 247.03068,221.42659 C 256.4562,220.75589 265.87925,219.94098 275.28444,219.0511 C 291.48916,213.86825 300.78962,197.76639 316.42898,191.57774 z "
       id="path2180" />
    <path
       style="fill:#000000;fill-rule:nonzero;stroke:none"
       d="M 316.42898,191.57774 C 322.89637,188.88199 329.88192,187.75815 336.83331,187.2453 C 336.83044,190.15022 336.8325,193.0551 336.83023,195.96046 C 332.07611,197.72441 326.76831,198.75151 322.84266,202.134 C 327.53512,202.89935 332.2429,201.89804 336.82724,200.94246 C 350.18745,198.01913 363.34381,193.44795 377.1475,193.19423 C 378.47064,195.83856 379.68249,199.80473 376.68933,201.79781 C 372.22802,204.48949 366.73608,203.05862 361.81797,203.68471 C 364.83934,205.94856 368.38177,207.32571 371.63424,209.20409 C 375.07789,211.12697 378.11392,213.66727 381.23138,216.06312 C 379.94085,218.72208 377.90066,220.87781 375.56053,222.64288 C 360.3056,215.81711 343.58439,210.75337 326.70199,212.72188 C 308.41873,214.64247 291.98376,223.528 275.88255,231.7529 C 274.8271,232.41165 273.43917,232.76584 272.76304,233.88397 C 279.50289,236.11755 286.70291,236.39967 293.74136,236.05078 C 310.1577,235.05962 326.29602,231.54756 342.69039,230.33044 C 354.28601,229.5479 366.31929,229.78476 377.19368,234.36616 C 376.30636,236.31474 376.00534,238.42941 375.89888,240.54886 C 369.12396,241.53729 362.31106,242.25555 355.55598,243.37001 C 357.94342,248.82091 364.02391,251.32005 367.09226,256.37631 C 364.8789,257.77759 362.77061,259.33562 360.76573,261.0186 C 352.79499,258.12097 345.64265,252.849 341.37373,245.41948 C 337.09034,245.77598 332.78813,246.01968 328.53118,246.59926 C 328.49913,250.11238 329.36862,253.53441 330.21078,256.91811 C 329.45227,257.80591 328.94339,258.82097 328.68415,259.96329 C 326.39167,260.52891 324.10885,261.1232 321.83558,261.7513 C 318.22071,257.94691 315.14145,253.60141 313.87751,248.42789 C 291.90164,248.46069 269.98358,246.68139 248.0504,245.57695 C 250.2241,249.29271 251.12939,253.56445 251.09768,257.84378 C 248.87242,258.49466 246.69867,259.30363 244.58647,260.25684 C 245.71905,264.75333 249.66661,267.56742 253.2637,270.07136 C 261.3049,275.33381 271.20063,276.64828 280.62368,276.45464 C 302.83575,276.01244 324.39561,268.86376 346.66714,269.24556 C 356.31831,269.38162 366.30223,271.46689 374.25795,277.19508 C 380.43487,281.45474 384.94593,287.69004 388.19484,294.37522 C 389.89723,298.28857 394.65754,300.85009 394.07981,305.57769 C 389.83143,305.87373 385.39334,306.45898 381.45834,304.39124 C 386.45749,317.75868 384.67582,332.74889 390.54982,345.85501 C 391.74949,348.92413 394.7819,351.25392 394.77978,354.7463 C 394.5057,360.26806 392.44332,365.47687 390.47274,370.57607 C 383.87631,386.83103 375.45935,402.26148 368.40609,418.31162 C 366.56829,422.13344 367.38108,426.45026 367.29733,430.5287 C 362.80754,430.43714 358.25949,431.54212 353.81938,430.59159 C 351.45488,429.16527 347.70729,426.56181 349.41037,423.38926 C 356.63659,408.59412 363.68547,393.5896 368.24131,377.72134 C 369.4288,372.93162 370.95416,368.02123 370.49,363.04409 C 367.74832,360.26019 364.30285,358.3355 360.9515,356.39646 C 359.79765,360.22537 358.18376,363.89854 356.22445,367.38294 C 349.24398,380.06614 341.16459,392.15447 335.04882,405.30551 C 332.12814,411.63311 329.53869,418.24074 328.82919,425.22992 C 325.10266,425.13131 321.37118,424.86597 317.64921,425.17919 C 316.27584,423.40581 314.84565,421.6821 313.49107,419.89983 C 321.26242,403.89285 330.58393,388.3336 334.81752,370.89416 C 335.98172,364.83574 337.37866,357.56147 333.05772,352.3864 C 329.41763,347.72292 325.60714,343.01964 320.93887,339.36318 C 304.44837,342.64913 287.77465,345.08036 270.99658,346.34875 C 261.15945,365.15016 250.43949,383.5528 242.33664,403.20516 C 239.38664,410.62502 236.42099,418.28363 236.3446,426.38442 C 231.43245,426.32326 226.52047,426.35852 221.60893,426.35561 C 219.89903,421.8416 221.24133,417.02299 222.59767,412.6129 C 225.94299,402.19666 230.51735,392.23569 235.02474,382.28561 C 236.23127,379.51902 237.85786,376.82545 238.10215,373.75187 C 239.30445,362.97035 240.53164,352.18568 242.22876,341.46941 C 239.93159,339.02341 237.53572,336.67385 235.02864,334.44576 C 223.35818,338.24376 211.45811,341.37674 199.38964,343.62323 C 197.38853,348.97758 196.56283,354.80526 198.18653,360.38562 C 200.0606,361.4706 201.96438,362.50302 203.88598,363.50577 C 204.24058,366.2978 204.25875,369.30387 205.71611,371.80657 C 208.11367,375.14019 212.6072,375.12487 216.19476,376.11591 C 216.70198,380.20301 216.97634,384.87022 214.35688,388.34832 C 212.41624,391.01883 208.91293,392.1075 205.72918,391.84188 C 196.11407,382.52544 186.95193,372.11974 181.76133,359.6166 C 178.12202,351.10938 178.32421,340.59356 184.26457,333.15752 C 192.46202,322.70583 205.5733,318.04729 217.81762,314.20385 C 212.09764,304.77423 209.85397,293.88846 206.13028,283.64231 C 200.96716,269.48025 189.25199,259.1382 177.28848,250.62999 C 177.27955,247.66992 177.46627,244.71596 177.54296,241.75941 C 177.72389,238.71226 175.79798,236.17874 174.47007,233.6124 C 176.38876,229.99914 180.26207,228.17305 184.1477,227.53514 C 196.02267,225.48708 208.09336,227.06474 220.00166,227.9429 C 225.0574,222.08035 229.76556,215.73239 236.09455,211.09337 C 245.1286,203.89348 256.1698,199.81312 267.31163,197.20543 C 267.2998,200.30841 267.17536,203.65469 265.22406,206.23724 C 260.49284,212.80164 252.09799,215.1889 247.03068,221.42659 C 256.4562,220.75589 265.87925,219.94098 275.28444,219.0511 C 291.48916,213.86825 300.78962,197.76639 316.42898,191.57774 z "
       id="path2182" />
    <path
       style="fill:none;stroke:#ffffff;stroke-width:0.1;stroke-linecap:butt;stroke-linejoin:miter;stroke-miterlimit:10"
       d="M 315.4671,196.57936 C 321.04394,193.94177 327.13023,192.18022 333.31887,191.96133 C 329.46807,194.81439 324.5064,195.60821 320.34404,197.95422 C 319.61563,200.16449 318.87405,202.37022 318.11486,204.56972 C 322.33819,207.17183 327.47699,206.73123 332.17366,206.06309 C 341.02142,204.57556 349.62947,201.988 358.35882,199.95813 C 358.37696,202.32843 358.37759,204.6989 358.3732,207.06999 C 364.38076,210.34456 371.12759,212.69162 376.02919,217.65086 C 373.59759,217.55408 371.44566,216.36742 369.23117,215.50999 C 353.34689,209.06551 335.63874,206.11961 318.70381,209.7525 C 298.85563,213.92065 281.25589,224.47966 263.41346,233.63139 C 274.8549,241.59767 289.56421,240.84883 302.77491,239.45473 C 318.77984,237.81378 334.62022,234.37092 350.75589,234.15314 C 357.85934,234.03789 365.06286,234.59756 371.85043,236.82402 C 365.07633,237.92592 358.24865,238.68419 351.44827,239.60115 C 351.56086,243.1747 351.68949,247.30742 354.68167,249.79678 C 356.63226,252.02966 359.99032,253.3025 360.69009,256.41243 C 353.19659,253.73103 347.36061,247.96344 343.53538,241.10173 C 337.17628,241.45859 330.85038,242.21854 324.49684,242.63655 C 324.15155,247.33255 324.68104,252.0092 325.66647,256.59845 C 324.2349,256.92569 322.74418,256.95035 321.96411,255.47938 C 319.14164,252.36049 318.32992,248.10545 316.80055,244.3145 C 291.73007,244.54416 266.7543,241.97282 241.7127,241.33381 C 242.33975,246.23115 246.51554,249.71945 246.85142,254.7122 C 245.30378,255.42036 243.76673,256.14975 242.23114,256.88068 C 238.45326,253.64035 233.42794,253.04066 228.72572,252.18225 C 228.2644,253.50145 227.79678,254.81909 227.32284,256.13518 C 230.96229,257.12411 235.04911,257.03676 238.25431,259.24138 C 240.95889,261.12404 241.27459,264.73167 243.38391,267.08575 C 250.71945,275.44193 261.76658,279.68181 272.68896,280.37666 C 297.9799,282.12911 322.43222,272.78917 347.67102,273.40408 C 358.67108,273.64819 370.22772,277.1964 377.61567,285.75465 C 382.18988,290.47754 384.09844,296.97597 388.31616,301.95385 C 383.10827,301.78701 379.27699,297.8795 376.55699,293.8353 C 375.4271,294.63755 374.30583,295.4466 373.18869,296.26052 C 375.74517,300.01367 376.90376,304.45914 378.4691,308.67021 C 382.88545,323.59649 380.613,340.93157 390.59944,353.88971 C 390.27151,361.66423 386.62789,368.74572 383.72717,375.81301 C 377.477,389.91329 370.31662,403.58872 364.0733,417.69293 C 362.26579,416.43164 360.33941,415.35678 358.27226,414.59565 C 364.57138,400.94759 370.65048,387.02487 373.84802,372.27553 C 374.33161,368.84888 375.32711,365.31517 374.72607,361.86628 C 371.26513,356.77191 365.33625,354.21344 360.09932,351.35428 C 355.58264,347.16841 350.06752,344.16408 345.93731,339.55016 C 343.65757,337.09464 341.7789,334.31333 339.91931,331.54002 C 341.44661,330.23431 342.98861,328.94585 344.53878,327.66607 C 343.60731,326.58437 342.67916,325.50667 341.75326,324.42898 C 337.3609,328.31411 332.68209,332.3104 326.80354,333.62622 C 307.63371,338.26235 288.0292,340.90248 268.37527,342.36128 C 256.19241,366.14054 241.80137,389.10939 233.84706,414.78458 C 231.4235,414.47473 228.99671,414.19108 226.57064,413.91935 C 230.02754,403.13787 234.82208,392.85775 239.48579,382.56206 C 240.56916,380.07522 241.96081,377.62876 242.17059,374.87182 C 243.41934,363.20366 244.89546,351.56213 246.57008,339.94848 C 242.99858,335.98475 238.90669,332.5409 235.32113,328.5957 C 234.9357,329.2367 234.16482,330.51866 233.7794,331.15963 C 233.96157,330.43174 234.32595,328.97596 234.50814,328.24807 C 229.14228,323.68717 225.12277,317.77813 221.34039,311.90177 C 213.75529,299.60153 212.92836,284.45393 205.16142,272.2558 C 199.15532,262.66545 190.50438,255.06061 181.41203,248.4778 C 181.81421,243.42342 182.2284,238.114 179.38618,233.61712 C 184.39253,230.96886 190.16162,230.91081 195.67984,230.6844 C 204.6242,230.80009 213.55095,231.50781 222.45602,232.31218 C 226.68267,226.07974 231.5794,220.25186 237.36946,215.41153 C 244.66108,209.34349 253.44758,205.25464 262.57565,202.81488 C 257.84393,209.84561 248.74223,212.05003 243.84986,218.92308 C 242.26014,221.05012 241.82215,223.71675 241.14212,226.21512 C 252.86323,225.05943 264.62521,224.31947 276.34034,223.12498 C 280.57015,221.82661 284.44631,219.55017 288.17971,217.21025 C 297.83335,211.06813 305.07444,201.63388 315.4671,196.57936 z "
       id="path2188" />
    <path
       style="fill:url(#radialGradient3322);fill-opacity:1;fill-rule:nonzero;stroke:none"
       d="M 315.4671,196.57936 C 321.04394,193.94177 327.13023,192.18022 333.31887,191.96133 C 329.46807,194.81439 324.5064,195.60821 320.34404,197.95422 C 319.61563,200.16449 318.87405,202.37022 318.11486,204.56972 C 322.33819,207.17183 327.47699,206.73123 332.17366,206.06309 C 341.02142,204.57556 349.62947,201.988 358.35882,199.95813 C 358.37696,202.32843 358.37759,204.6989 358.3732,207.06999 C 364.38076,210.34456 371.12759,212.69162 376.02919,217.65086 C 373.59759,217.55408 371.44566,216.36742 369.23117,215.50999 C 353.34689,209.06551 335.63874,206.11961 318.70381,209.7525 C 298.85563,213.92065 281.25589,224.47966 263.41346,233.63139 C 274.8549,241.59767 289.56421,240.84883 302.77491,239.45473 C 318.77984,237.81378 334.62022,234.37092 350.75589,234.15314 C 357.85934,234.03789 365.06286,234.59756 371.85043,236.82402 C 365.07633,237.92592 358.24865,238.68419 351.44827,239.60115 C 351.56086,243.1747 351.68949,247.30742 354.68167,249.79678 C 356.63226,252.02966 359.99032,253.3025 360.69009,256.41243 C 353.19659,253.73103 347.36061,247.96344 343.53538,241.10173 C 337.17628,241.45859 330.85038,242.21854 324.49684,242.63655 C 324.15155,247.33255 324.68104,252.0092 325.66647,256.59845 C 324.2349,256.92569 322.74418,256.95035 321.96411,255.47938 C 319.14164,252.36049 318.32992,248.10545 316.80055,244.3145 C 291.73007,244.54416 266.7543,241.97282 241.7127,241.33381 C 242.33975,246.23115 246.51554,249.71945 246.85142,254.7122 C 245.30378,255.42036 243.76673,256.14975 242.23114,256.88068 C 238.45326,253.64035 233.42794,253.04066 228.72572,252.18225 C 228.2644,253.50145 227.79678,254.81909 227.32284,256.13518 C 230.96229,257.12411 235.04911,257.03676 238.25431,259.24138 C 240.95889,261.12404 241.27459,264.73167 243.38391,267.08575 C 250.71945,275.44193 261.76658,279.68181 272.68896,280.37666 C 297.9799,282.12911 322.43222,272.78917 347.67102,273.40408 C 358.67108,273.64819 370.22772,277.1964 377.61567,285.75465 C 382.18988,290.47754 384.09844,296.97597 388.31616,301.95385 C 383.10827,301.78701 379.27699,297.8795 376.55699,293.8353 C 375.4271,294.63755 374.30583,295.4466 373.18869,296.26052 C 375.74517,300.01367 376.90376,304.45914 378.4691,308.67021 C 382.88545,323.59649 380.613,340.93157 390.59944,353.88971 C 390.27151,361.66423 386.62789,368.74572 383.72717,375.81301 C 377.477,389.91329 370.31662,403.58872 364.0733,417.69293 C 362.26579,416.43164 360.33941,415.35678 358.27226,414.59565 C 364.57138,400.94759 370.65048,387.02487 373.84802,372.27553 C 374.33161,368.84888 375.32711,365.31517 374.72607,361.86628 C 371.26513,356.77191 365.33625,354.21344 360.09932,351.35428 C 355.58264,347.16841 350.06752,344.16408 345.93731,339.55016 C 343.65757,337.09464 341.7789,334.31333 339.91931,331.54002 C 341.44661,330.23431 342.98861,328.94585 344.53878,327.66607 C 343.60731,326.58437 342.67916,325.50667 341.75326,324.42898 C 337.3609,328.31411 332.68209,332.3104 326.80354,333.62622 C 307.63371,338.26235 288.0292,340.90248 268.37527,342.36128 C 256.19241,366.14054 241.80137,389.10939 233.84706,414.78458 C 231.4235,414.47473 228.99671,414.19108 226.57064,413.91935 C 230.02754,403.13787 234.82208,392.85775 239.48579,382.56206 C 240.56916,380.07522 241.96081,377.62876 242.17059,374.87182 C 243.41934,363.20366 244.89546,351.56213 246.57008,339.94848 C 242.99858,335.98475 238.90669,332.5409 235.32113,328.5957 C 234.9357,329.2367 234.16482,330.51866 233.7794,331.15963 C 233.96157,330.43174 234.32595,328.97596 234.50814,328.24807 C 229.14228,323.68717 225.12277,317.77813 221.34039,311.90177 C 213.75529,299.60153 212.92836,284.45393 205.16142,272.2558 C 199.15532,262.66545 190.50438,255.06061 181.41203,248.4778 C 181.81421,243.42342 182.2284,238.114 179.38618,233.61712 C 184.39253,230.96886 190.16162,230.91081 195.67984,230.6844 C 204.6242,230.80009 213.55095,231.50781 222.45602,232.31218 C 226.68267,226.07974 231.5794,220.25186 237.36946,215.41153 C 244.66108,209.34349 253.44758,205.25464 262.57565,202.81488 C 257.84393,209.84561 248.74223,212.05003 243.84986,218.92308 C 242.26014,221.05012 241.82215,223.71675 241.14212,226.21512 C 252.86323,225.05943 264.62521,224.31947 276.34034,223.12498 C 280.57015,221.82661 284.44631,219.55017 288.17971,217.21025 C 297.83335,211.06813 305.07444,201.63388 315.4671,196.57936 z "
       id="path2190" />
    <path
       style="fill:none;stroke:#ffffff;stroke-width:0.1;stroke-linecap:butt;stroke-linejoin:miter;stroke-miterlimit:10"
       d="M 361.2384,199.21922 C 365.76293,198.40475 370.31984,197.5098 374.93792,197.54008 C 371.24736,200.79864 365.72254,198.99824 361.2384,199.21922 z "
       id="path2196" />
    <path
       style="fill:#b47b26;fill-opacity:1;fill-rule:nonzero;stroke:none"
       d="M 361.2384,199.21922 C 365.76293,198.40475 370.31984,197.5098 374.93792,197.54008 C 371.24736,200.79864 365.72254,198.99824 361.2384,199.21922 z "
       id="path2198" />
    <path
       style="fill:none;stroke:#000000;stroke-width:0.1;stroke-linecap:butt;stroke-linejoin:miter;stroke-miterlimit:10"
       d="M 211.17131,241.01138 C 212.01541,240.00603 212.85424,238.99702 213.69316,237.98778 C 214.97171,238.98347 216.25113,239.97716 217.55662,240.94165 C 215.51333,241.86777 215.76997,244.0972 215.52711,245.96776 C 213.86593,244.51443 212.56494,242.70859 211.17131,241.01138 z "
       id="path2204" />
    <path
       style="fill:#000000;fill-rule:nonzero;stroke:none"
       d="M 211.17131,241.01138 C 212.01541,240.00603 212.85424,238.99702 213.69316,237.98778 C 214.97171,238.98347 216.25113,239.97716 217.55662,240.94165 C 215.51333,241.86777 215.76997,244.0972 215.52711,245.96776 C 213.86593,244.51443 212.56494,242.70859 211.17131,241.01138 z "
       id="path2206" />
    <path
       style="fill:none;stroke:#ffffff;stroke-width:0.1;stroke-linecap:butt;stroke-linejoin:miter;stroke-miterlimit:10"
       d="M 195.40048,328.46731 C 202.92196,323.43906 211.54444,320.36214 220.19291,317.89626 C 223.59594,322.6373 227.01985,327.4365 231.4655,331.27724 C 219.88368,334.83219 208.13183,337.8507 196.20611,340.00739 C 193.31118,347.29977 192.05352,355.36067 194.48172,362.98922 C 196.31463,364.0657 198.1374,365.15969 199.9523,366.27093 C 200.29055,370.1334 201.45376,374.00767 204.40991,376.69092 C 203.57009,378.19384 202.75061,379.7056 201.94458,381.23124 C 203.21977,381.85455 204.50051,382.47404 205.7821,383.09371 C 206.59768,381.55793 207.38403,380.00939 208.24675,378.50268 C 209.65988,378.8992 211.07693,379.28739 212.49791,379.66732 C 212.41084,382.5739 212.02905,386.50535 208.66915,387.43743 C 207.31115,388.16248 206.40498,386.62442 205.53671,385.88474 C 198.572,378.65532 191.97195,370.88175 187.35667,361.90995 C 184.46254,356.07142 182.29785,349.28948 184.11532,342.78908 C 185.66009,336.67254 190.31233,331.91069 195.40048,328.46731 z "
       id="path2212" />
    <path
       style="fill:#cb8d2b;fill-opacity:1;fill-rule:nonzero;stroke:none"
       d="M 195.40048,328.46731 C 202.92196,323.43906 211.54444,320.36214 220.19291,317.89626 C 223.59594,322.6373 227.01985,327.4365 231.4655,331.27724 C 219.88368,334.83219 208.13183,337.8507 196.20611,340.00739 C 193.31118,347.29977 192.05352,355.36067 194.48172,362.98922 C 196.31463,364.0657 198.1374,365.15969 199.9523,366.27093 C 200.29055,370.1334 201.45376,374.00767 204.40991,376.69092 C 203.57009,378.19384 202.75061,379.7056 201.94458,381.23124 C 203.21977,381.85455 204.50051,382.47404 205.7821,383.09371 C 206.59768,381.55793 207.38403,380.00939 208.24675,378.50268 C 209.65988,378.8992 211.07693,379.28739 212.49791,379.66732 C 212.41084,382.5739 212.02905,386.50535 208.66915,387.43743 C 207.31115,388.16248 206.40498,386.62442 205.53671,385.88474 C 198.572,378.65532 191.97195,370.88175 187.35667,361.90995 C 184.46254,356.07142 182.29785,349.28948 184.11532,342.78908 C 185.66009,336.67254 190.31233,331.91069 195.40048,328.46731 z "
       id="path2214" />
    <path
       style="fill:none;stroke:#ffffff;stroke-width:0.1;stroke-linecap:butt;stroke-linejoin:miter;stroke-miterlimit:10"
       d="M 326.11201,338.21253 C 329.76544,337.25325 333.33842,335.96391 336.59698,334.02659 C 339.88658,339.48085 344.12399,344.38995 349.2608,348.18284 C 351.68039,350.09948 354.47648,351.61845 356.49243,354.00032 C 357.12436,356.9075 355.30632,359.61639 354.20503,362.19473 C 345.06631,379.85138 332.89668,396.08944 326.68089,415.15639 C 324.76097,414.87565 322.84636,414.58733 320.93078,414.31324 C 327.94316,400.4379 335.50117,386.54342 339.00509,371.27542 C 340.18814,364.72138 341.36759,357.11 337.35227,351.26155 C 334.12187,346.49717 330.16096,342.28231 326.11201,338.21253 z "
       id="path2220" />
    <path
       style="fill:#cb8d2b;fill-opacity:1;fill-rule:nonzero;stroke:none"
       d="M 326.11201,338.21253 C 329.76544,337.25325 333.33842,335.96391 336.59698,334.02659 C 339.88658,339.48085 344.12399,344.38995 349.2608,348.18284 C 351.68039,350.09948 354.47648,351.61845 356.49243,354.00032 C 357.12436,356.9075 355.30632,359.61639 354.20503,362.19473 C 345.06631,379.85138 332.89668,396.08944 326.68089,415.15639 C 324.76097,414.87565 322.84636,414.58733 320.93078,414.31324 C 327.94316,400.4379 335.50117,386.54342 339.00509,371.27542 C 340.18814,364.72138 341.36759,357.11 337.35227,351.26155 C 334.12187,346.49717 330.16096,342.28231 326.11201,338.21253 z "
       id="path2222" />
    <path
       style="fill:none;stroke:#ffffff;stroke-width:0.1;stroke-linecap:butt;stroke-linejoin:miter;stroke-miterlimit:10"
       d="M 225.84544,415.4842 C 225.90754,416.1284 226.03178,417.41684 226.0939,418.06104 C 228.28032,418.3176 230.47056,418.56868 232.65591,418.85197 C 232.60536,419.98108 232.52722,421.1119 232.4215,422.24439 C 229.88677,422.23372 227.35299,422.23082 224.81984,422.22127 C 225.10856,419.96472 225.43832,417.71845 225.84544,415.4842 z "
       id="path2228" />
    <path
       style="fill:#cb8b2b;fill-opacity:1;fill-rule:nonzero;stroke:none"
       d="M 225.84544,415.4842 C 225.90754,416.1284 226.03178,417.41684 226.0939,418.06104 C 228.28032,418.3176 230.47056,418.56868 232.65591,418.85197 C 232.60536,419.98108 232.52722,421.1119 232.4215,422.24439 C 229.88677,422.23372 227.35299,422.23082 224.81984,422.22127 C 225.10856,419.96472 225.43832,417.71845 225.84544,415.4842 z "
       id="path2230" />
    <path
       style="fill:none;stroke:#ffffff;stroke-width:0.1;stroke-linecap:butt;stroke-linejoin:miter;stroke-miterlimit:10"
       d="M 318.45948,418.31548 C 320.83268,418.5409 323.19441,418.86358 325.55557,419.21277 C 325.48168,419.66583 325.33392,420.57195 325.26005,421.02501 C 322.84834,420.60511 318.57994,421.93357 318.45948,418.31548 z "
       id="path2236" />
    <path
       style="fill:#cb8b2b;fill-opacity:1;fill-rule:nonzero;stroke:none"
       d="M 318.45948,418.31548 C 320.83268,418.5409 323.19441,418.86358 325.55557,419.21277 C 325.48168,419.66583 325.33392,420.57195 325.26005,421.02501 C 322.84834,420.60511 318.57994,421.93357 318.45948,418.31548 z "
       id="path2238" />
    <path
       style="fill:none;stroke:#ffffff;stroke-width:0.1;stroke-linecap:butt;stroke-linejoin:miter;stroke-miterlimit:10"
       d="M 356.31604,418.66914 C 358.8014,419.20156 360.92811,420.59467 363.08288,421.87789 C 363.06228,423.4317 363.07015,424.98835 363.0702,426.54909 C 359.73483,426.50321 355.89231,427.65466 353.16424,425.12583 C 354.23146,422.98062 355.29472,420.83459 356.31604,418.66914 z "
       id="path2244" />
    <path
       style="fill:#cb8b2b;fill-opacity:1;fill-rule:nonzero;stroke:none"
       d="M 356.31604,418.66914 C 358.8014,419.20156 360.92811,420.59467 363.08288,421.87789 C 363.06228,423.4317 363.07015,424.98835 363.0702,426.54909 C 359.73483,426.50321 355.89231,427.65466 353.16424,425.12583 C 354.23146,422.98062 355.29472,420.83459 356.31604,418.66914 z "
       id="path2246" />
    <path
       style="fill:none;stroke:#000000;stroke-width:0.1;stroke-linecap:butt;stroke-linejoin:miter;stroke-miterlimit:10"
       d="M 563.17401,191.41612 C 569.50186,188.80292 576.33599,187.79335 583.11782,187.21828 C 583.12039,190.13878 583.11738,193.05929 583.12232,195.98022 C 578.41976,197.78091 573.01797,198.69369 569.22604,202.177 C 575.79461,203.03523 582.25529,201.10287 588.60229,199.6736 C 600.17474,196.93054 611.73826,193.19679 623.7547,193.32304 C 624.63202,195.93407 626.08654,199.40123 623.4085,201.47951 C 619.04269,204.66453 613.22291,202.97656 608.23025,203.69672 C 611.23103,206.06035 614.87571,207.33578 618.13295,209.28256 C 621.50645,211.20489 624.49726,213.70126 627.56268,216.06915 C 626.27072,218.78078 624.15704,220.92862 621.73452,222.64955 C 605.26481,215.01506 586.74237,210.03363 568.5476,213.34373 C 550.65803,216.47195 534.49488,225.31872 518.65525,233.7751 C 525.10514,235.8468 531.92451,236.42215 538.66766,236.10766 C 561.45344,235.05925 583.8787,228.46858 606.8049,230.3354 C 612.53056,230.81758 618.15171,232.22738 623.48667,234.35562 C 622.72494,236.34537 622.36895,238.43883 622.27778,240.55945 C 615.47824,241.52298 608.64943,242.2702 601.87052,243.35741 C 604.29882,248.77411 610.27349,251.29133 613.48249,256.21554 C 611.3059,257.75894 609.14225,259.3159 607.10224,261.03268 C 599.12558,258.0713 591.98001,252.81895 587.65238,245.39137 C 583.40472,245.74156 579.16819,246.18901 574.91853,246.45889 C 574.9057,250.02963 575.6423,253.52244 576.52223,256.96428 C 575.74577,257.84203 575.23845,258.85466 575.00022,260.00218 C 572.70137,260.52731 570.42785,261.12152 568.1537,261.71751 C 564.50968,257.92865 561.52459,253.53458 560.17268,248.39961 C 538.22401,248.49638 516.33361,246.66252 494.4282,245.5776 C 496.52525,249.32309 497.5263,253.5625 497.33848,257.85493 C 495.06623,258.50923 492.86967,259.38805 490.75431,260.43205 C 492.62902,265.2488 496.96607,268.467 501.2314,271.06578 C 507.44937,274.62485 514.65309,276.08651 521.75277,276.38384 C 548.66084,277.42856 574.84924,266.42896 601.79617,269.97223 C 615.02353,271.50319 627.1397,279.82598 633.1446,291.73414 C 634.91528,295.77269 637.86381,299.05989 640.39769,302.6146 C 640.34648,303.37305 640.24408,304.88993 640.19288,305.64837 C 636.04685,305.90371 631.77441,306.33651 627.88664,304.51753 C 633.51066,319.64662 630.30601,337.50498 640.04551,351.14155 C 642.33148,355.03907 640.37564,359.73457 639.30253,363.74625 C 633.58221,380.34879 625.03201,395.76479 617.73812,411.69272 C 616.18403,415.31751 614.0005,418.7976 613.56852,422.79517 C 613.37532,425.35999 613.62928,427.93028 613.71473,430.49888 C 608.27005,430.08338 601.38173,433.08371 597.16745,428.35571 C 596.0592,427.19648 594.39161,425.54689 595.54289,423.85012 C 603.49395,407.38884 611.55062,390.73712 615.80181,372.86422 C 616.33938,369.63358 617.42814,366.28307 616.85404,363.02468 C 614.10208,360.264 610.67138,358.33103 607.31129,356.42383 C 603.88377,367.098 597.18057,376.26303 591.77407,385.97406 C 584.78186,398.34154 577.08456,410.9373 575.0856,425.26055 C 571.3699,425.10366 567.64979,424.88749 563.93893,425.16648 C 562.58685,423.39471 561.20057,421.65263 559.84779,419.89032 C 566.03884,407.314 572.87477,395.00801 577.84046,381.87033 C 580.69934,373.89919 583.31401,365.31661 581.78939,356.78612 C 579.54791,351.17296 574.8833,347.01913 570.92828,342.60295 C 569.44665,341.34742 568.21829,338.84505 565.91203,339.52339 C 549.92064,342.94161 533.67228,345.03521 517.37974,346.33204 C 506.72467,366.61498 495.05626,386.48435 486.83506,407.93341 C 484.65858,413.83445 482.62538,419.95159 482.83252,426.3294 C 477.88542,426.36925 472.93974,426.3416 467.99559,426.36371 C 466.06344,421.76915 467.69812,416.83664 469.03637,412.32782 C 472.85292,400.59989 478.15074,389.43404 483.2236,378.21529 C 484.229,376.23034 484.41735,373.99502 484.6771,371.82489 C 485.78332,361.71707 486.97548,351.61485 488.54441,341.56742 C 486.15879,339.20852 484.05667,336.27938 481.10952,334.66275 C 469.43818,338.13634 457.69557,341.46363 445.70008,343.64237 C 443.68921,348.92898 443.19853,354.65569 444.37503,360.19929 C 446.24478,361.36019 448.16456,362.44146 450.13316,363.43808 C 450.71511,366.55927 450.51188,370.20252 452.7817,372.70372 C 455.44065,375.1067 459.19583,375.35979 462.55104,376.00702 C 463.18661,380.23844 463.29908,385.04509 460.53939,388.60421 C 458.63285,391.04935 455.42881,391.8612 452.47369,391.9791 C 450.04345,390.48432 448.33302,388.10865 446.34782,386.11007 C 437.95076,376.83588 429.54673,366.70656 426.45825,354.30424 C 424.45608,346.51615 426.27938,337.83082 431.68373,331.80333 C 440.05603,322.29079 452.43718,317.84097 464.21836,314.19985 C 456.14878,301.53432 455.54502,285.66599 447.14468,273.18758 C 441.07228,263.99724 432.41279,256.93039 423.54229,250.57793 C 423.57351,247.2701 424.02671,243.97617 423.9348,240.66846 C 423.50254,238.10338 422.02052,235.90147 420.83311,233.6436 C 423.04086,229.2352 428.08172,227.75075 432.61769,227.19818 C 443.93771,225.72404 455.37663,227.05196 466.68344,228.01059 C 472.869,219.25186 480.54321,211.36233 489.9355,206.05162 C 497.24133,201.79181 505.36869,199.22363 513.54589,197.22874 C 513.58854,200.40538 513.53311,203.82838 511.4311,206.4285 C 506.67347,212.85988 498.41717,215.28657 493.30799,221.3864 C 502.72694,220.81518 512.1304,219.908 521.53082,219.07976 C 537.92436,213.88715 547.28172,197.51292 563.17401,191.41612 z "
       id="path2184" />
    <path
       style="fill:#000000;fill-rule:nonzero;stroke:none"
       d="M 563.17401,191.41612 C 569.50186,188.80292 576.33599,187.79335 583.11782,187.21828 C 583.12039,190.13878 583.11738,193.05929 583.12232,195.98022 C 578.41976,197.78091 573.01797,198.69369 569.22604,202.177 C 575.79461,203.03523 582.25529,201.10287 588.60229,199.6736 C 600.17474,196.93054 611.73826,193.19679 623.7547,193.32304 C 624.63202,195.93407 626.08654,199.40123 623.4085,201.47951 C 619.04269,204.66453 613.22291,202.97656 608.23025,203.69672 C 611.23103,206.06035 614.87571,207.33578 618.13295,209.28256 C 621.50645,211.20489 624.49726,213.70126 627.56268,216.06915 C 626.27072,218.78078 624.15704,220.92862 621.73452,222.64955 C 605.26481,215.01506 586.74237,210.03363 568.5476,213.34373 C 550.65803,216.47195 534.49488,225.31872 518.65525,233.7751 C 525.10514,235.8468 531.92451,236.42215 538.66766,236.10766 C 561.45344,235.05925 583.8787,228.46858 606.8049,230.3354 C 612.53056,230.81758 618.15171,232.22738 623.48667,234.35562 C 622.72494,236.34537 622.36895,238.43883 622.27778,240.55945 C 615.47824,241.52298 608.64943,242.2702 601.87052,243.35741 C 604.29882,248.77411 610.27349,251.29133 613.48249,256.21554 C 611.3059,257.75894 609.14225,259.3159 607.10224,261.03268 C 599.12558,258.0713 591.98001,252.81895 587.65238,245.39137 C 583.40472,245.74156 579.16819,246.18901 574.91853,246.45889 C 574.9057,250.02963 575.6423,253.52244 576.52223,256.96428 C 575.74577,257.84203 575.23845,258.85466 575.00022,260.00218 C 572.70137,260.52731 570.42785,261.12152 568.1537,261.71751 C 564.50968,257.92865 561.52459,253.53458 560.17268,248.39961 C 538.22401,248.49638 516.33361,246.66252 494.4282,245.5776 C 496.52525,249.32309 497.5263,253.5625 497.33848,257.85493 C 495.06623,258.50923 492.86967,259.38805 490.75431,260.43205 C 492.62902,265.2488 496.96607,268.467 501.2314,271.06578 C 507.44937,274.62485 514.65309,276.08651 521.75277,276.38384 C 548.66084,277.42856 574.84924,266.42896 601.79617,269.97223 C 615.02353,271.50319 627.1397,279.82598 633.1446,291.73414 C 634.91528,295.77269 637.86381,299.05989 640.39769,302.6146 C 640.34648,303.37305 640.24408,304.88993 640.19288,305.64837 C 636.04685,305.90371 631.77441,306.33651 627.88664,304.51753 C 633.51066,319.64662 630.30601,337.50498 640.04551,351.14155 C 642.33148,355.03907 640.37564,359.73457 639.30253,363.74625 C 633.58221,380.34879 625.03201,395.76479 617.73812,411.69272 C 616.18403,415.31751 614.0005,418.7976 613.56852,422.79517 C 613.37532,425.35999 613.62928,427.93028 613.71473,430.49888 C 608.27005,430.08338 601.38173,433.08371 597.16745,428.35571 C 596.0592,427.19648 594.39161,425.54689 595.54289,423.85012 C 603.49395,407.38884 611.55062,390.73712 615.80181,372.86422 C 616.33938,369.63358 617.42814,366.28307 616.85404,363.02468 C 614.10208,360.264 610.67138,358.33103 607.31129,356.42383 C 603.88377,367.098 597.18057,376.26303 591.77407,385.97406 C 584.78186,398.34154 577.08456,410.9373 575.0856,425.26055 C 571.3699,425.10366 567.64979,424.88749 563.93893,425.16648 C 562.58685,423.39471 561.20057,421.65263 559.84779,419.89032 C 566.03884,407.314 572.87477,395.00801 577.84046,381.87033 C 580.69934,373.89919 583.31401,365.31661 581.78939,356.78612 C 579.54791,351.17296 574.8833,347.01913 570.92828,342.60295 C 569.44665,341.34742 568.21829,338.84505 565.91203,339.52339 C 549.92064,342.94161 533.67228,345.03521 517.37974,346.33204 C 506.72467,366.61498 495.05626,386.48435 486.83506,407.93341 C 484.65858,413.83445 482.62538,419.95159 482.83252,426.3294 C 477.88542,426.36925 472.93974,426.3416 467.99559,426.36371 C 466.06344,421.76915 467.69812,416.83664 469.03637,412.32782 C 472.85292,400.59989 478.15074,389.43404 483.2236,378.21529 C 484.229,376.23034 484.41735,373.99502 484.6771,371.82489 C 485.78332,361.71707 486.97548,351.61485 488.54441,341.56742 C 486.15879,339.20852 484.05667,336.27938 481.10952,334.66275 C 469.43818,338.13634 457.69557,341.46363 445.70008,343.64237 C 443.68921,348.92898 443.19853,354.65569 444.37503,360.19929 C 446.24478,361.36019 448.16456,362.44146 450.13316,363.43808 C 450.71511,366.55927 450.51188,370.20252 452.7817,372.70372 C 455.44065,375.1067 459.19583,375.35979 462.55104,376.00702 C 463.18661,380.23844 463.29908,385.04509 460.53939,388.60421 C 458.63285,391.04935 455.42881,391.8612 452.47369,391.9791 C 450.04345,390.48432 448.33302,388.10865 446.34782,386.11007 C 437.95076,376.83588 429.54673,366.70656 426.45825,354.30424 C 424.45608,346.51615 426.27938,337.83082 431.68373,331.80333 C 440.05603,322.29079 452.43718,317.84097 464.21836,314.19985 C 456.14878,301.53432 455.54502,285.66599 447.14468,273.18758 C 441.07228,263.99724 432.41279,256.93039 423.54229,250.57793 C 423.57351,247.2701 424.02671,243.97617 423.9348,240.66846 C 423.50254,238.10338 422.02052,235.90147 420.83311,233.6436 C 423.04086,229.2352 428.08172,227.75075 432.61769,227.19818 C 443.93771,225.72404 455.37663,227.05196 466.68344,228.01059 C 472.869,219.25186 480.54321,211.36233 489.9355,206.05162 C 497.24133,201.79181 505.36869,199.22363 513.54589,197.22874 C 513.58854,200.40538 513.53311,203.82838 511.4311,206.4285 C 506.67347,212.85988 498.41717,215.28657 493.30799,221.3864 C 502.72694,220.81518 512.1304,219.908 521.53082,219.07976 C 537.92436,213.88715 547.28172,197.51292 563.17401,191.41612 z "
       id="path2186" />
    <path
       style="fill:none;stroke:#ffffff;stroke-width:0.1;stroke-linecap:butt;stroke-linejoin:miter;stroke-miterlimit:10"
       d="M 561.70843,196.64198 C 567.30214,193.94054 573.43896,192.20169 579.66389,191.94966 C 575.86367,194.87382 570.80459,195.4138 566.81582,198.04463 C 565.7514,200.17363 565.21403,202.51718 564.4522,204.76086 C 569.20301,207.19253 574.68956,206.74393 579.77888,205.85487 C 588.15736,204.33484 596.32817,201.89067 604.63,200.01804 C 604.65457,202.41008 604.73284,204.80147 604.83589,207.19234 C 610.80818,210.42831 617.76376,212.61984 622.334,217.87439 C 618.27742,216.94504 614.60035,214.90921 610.64863,213.66333 C 595.76046,208.35925 579.42562,206.43378 563.90731,209.99464 C 544.48584,214.36066 527.18879,224.65074 509.68304,233.6973 C 520.24871,240.82611 533.5476,240.9572 545.77528,239.79591 C 563.14064,238.25366 580.278,234.31084 597.76301,234.14424 C 604.57505,234.12759 611.54338,234.53372 618.00601,236.8714 C 611.33279,237.89818 604.62667,238.69856 597.93567,239.57957 C 598.03968,242.42805 597.7714,245.55166 599.50579,248.01382 C 601.75193,251.17017 605.47074,252.91827 607.57951,256.21924 C 599.58117,254.36041 593.86563,247.83121 589.8193,241.06329 C 583.53244,241.60068 577.22256,241.99928 570.96615,242.75993 C 570.58775,247.28955 570.86221,251.89163 572.0979,256.28061 C 571.48318,256.48584 570.25373,256.8963 569.639,257.10153 C 566.10594,253.59967 564.77072,248.77388 563.06663,244.26266 C 537.99974,244.60405 513.02748,241.94604 487.98999,241.31984 C 488.68179,246.04758 492.5866,249.43832 493.18811,254.19409 C 492.024,255.57942 490.12603,256.02559 488.61962,256.93181 C 484.87625,253.62512 479.82103,253.05617 475.12142,252.16258 C 474.63826,253.49092 474.16807,254.8231 473.70988,256.15959 C 477.25192,257.10214 481.19506,257.05372 484.37197,259.07713 C 487.41111,261.01088 487.60264,265.06003 490.09103,267.46827 C 497.54989,275.74865 508.67903,279.81675 519.62126,280.41631 C 544.58657,281.96679 568.72424,272.8975 593.63858,273.39136 C 604.48768,273.6066 615.95425,276.86477 623.40187,285.18745 C 628.33281,289.99305 630.39332,296.76394 634.65437,302.05947 C 629.46485,301.6865 625.66844,297.87687 622.87727,293.84153 C 621.77963,294.60851 620.68542,295.37386 619.59466,296.13756 C 621.96751,300.01763 623.26225,304.40086 624.8157,308.64489 C 629.09333,323.11154 627.07818,339.63072 635.97621,352.56498 C 637.78236,354.6437 636.57089,357.3995 636.13009,359.749 C 633.87922,367.76508 630.30551,375.32566 626.8527,382.87641 C 621.41867,394.50037 615.66771,405.97379 610.38508,417.66892 C 608.59919,416.41086 606.69902,415.34458 604.64375,414.61599 C 611.43873,399.53257 618.44184,384.1917 620.95532,367.70809 C 621.03126,365.29302 622.05799,362.29499 620.0785,360.38097 C 616.2619,356.26252 611.08897,353.87649 606.25367,351.22551 C 602.12634,347.27655 596.99759,344.54067 593.08088,340.3584 C 590.42385,337.73626 588.33061,334.63213 586.27815,331.53814 C 587.8157,330.24124 589.36427,328.95281 590.90702,327.65586 C 589.95015,326.59009 589.00038,325.5256 588.04058,324.47579 C 583.83946,328.17903 579.39614,332.01957 573.83783,333.43067 C 554.43644,338.26418 534.54484,340.81479 514.63743,342.41598 C 502.5267,366.21602 488.16021,389.15811 480.14585,414.79927 C 477.73318,414.47998 475.32212,414.18743 472.91005,413.91671 C 476.25375,403.52733 480.83665,393.60056 485.32341,383.67002 C 486.55949,380.81249 488.25196,378.04418 488.49444,374.86984 C 489.76153,363.37051 491.16943,351.88571 492.87936,340.44357 C 489.75943,335.86889 485.07989,332.58322 481.38104,328.48806 C 481.53373,329.35166 481.83915,331.07886 481.99186,331.94245 L 481.19294,329.29608 L 479.43418,329.04328 C 480.02623,328.72132 480.61757,328.39206 481.2082,328.05544 C 478.49211,326.61628 476.59809,324.15768 474.70257,321.82653 C 471.2921,317.42101 467.90702,312.93648 465.52987,307.86939 C 460.09388,297.24452 458.78057,285.0068 452.87843,274.5875 C 446.94455,263.88173 437.57826,255.6326 427.82632,248.47916 C 428.2685,243.41748 428.50171,238.1384 425.74871,233.62703 C 430.95591,230.83023 437.00305,230.90616 442.74633,230.67674 C 451.41574,230.90555 460.0802,231.4404 468.70678,232.35609 C 472.87957,226.45966 477.40054,220.71588 482.96023,216.05415 C 490.40293,209.65942 499.46208,205.25934 508.95366,202.87404 C 504.24084,209.72601 495.40881,211.95926 490.45219,218.56599 C 488.71931,220.75661 488.1916,223.5581 487.54759,226.20261 C 499.22627,225.06146 510.94247,224.30781 522.61724,223.13425 C 527.00717,221.82414 531.00308,219.42529 534.8583,216.99055 C 544.32733,210.88957 551.4786,201.62738 561.70843,196.64198 z "
       id="path2192" />
    <path
       style="fill:url(#radialGradient3330);fill-opacity:1;fill-rule:nonzero;stroke:none"
       d="M 561.70843,196.64198 C 567.30214,193.94054 573.43896,192.20169 579.66389,191.94966 C 575.86367,194.87382 570.80459,195.4138 566.81582,198.04463 C 565.7514,200.17363 565.21403,202.51718 564.4522,204.76086 C 569.20301,207.19253 574.68956,206.74393 579.77888,205.85487 C 588.15736,204.33484 596.32817,201.89067 604.63,200.01804 C 604.65457,202.41008 604.73284,204.80147 604.83589,207.19234 C 610.80818,210.42831 617.76376,212.61984 622.334,217.87439 C 618.27742,216.94504 614.60035,214.90921 610.64863,213.66333 C 595.76046,208.35925 579.42562,206.43378 563.90731,209.99464 C 544.48584,214.36066 527.18879,224.65074 509.68304,233.6973 C 520.24871,240.82611 533.5476,240.9572 545.77528,239.79591 C 563.14064,238.25366 580.278,234.31084 597.76301,234.14424 C 604.57505,234.12759 611.54338,234.53372 618.00601,236.8714 C 611.33279,237.89818 604.62667,238.69856 597.93567,239.57957 C 598.03968,242.42805 597.7714,245.55166 599.50579,248.01382 C 601.75193,251.17017 605.47074,252.91827 607.57951,256.21924 C 599.58117,254.36041 593.86563,247.83121 589.8193,241.06329 C 583.53244,241.60068 577.22256,241.99928 570.96615,242.75993 C 570.58775,247.28955 570.86221,251.89163 572.0979,256.28061 C 571.48318,256.48584 570.25373,256.8963 569.639,257.10153 C 566.10594,253.59967 564.77072,248.77388 563.06663,244.26266 C 537.99974,244.60405 513.02748,241.94604 487.98999,241.31984 C 488.68179,246.04758 492.5866,249.43832 493.18811,254.19409 C 492.024,255.57942 490.12603,256.02559 488.61962,256.93181 C 484.87625,253.62512 479.82103,253.05617 475.12142,252.16258 C 474.63826,253.49092 474.16807,254.8231 473.70988,256.15959 C 477.25192,257.10214 481.19506,257.05372 484.37197,259.07713 C 487.41111,261.01088 487.60264,265.06003 490.09103,267.46827 C 497.54989,275.74865 508.67903,279.81675 519.62126,280.41631 C 544.58657,281.96679 568.72424,272.8975 593.63858,273.39136 C 604.48768,273.6066 615.95425,276.86477 623.40187,285.18745 C 628.33281,289.99305 630.39332,296.76394 634.65437,302.05947 C 629.46485,301.6865 625.66844,297.87687 622.87727,293.84153 C 621.77963,294.60851 620.68542,295.37386 619.59466,296.13756 C 621.96751,300.01763 623.26225,304.40086 624.8157,308.64489 C 629.09333,323.11154 627.07818,339.63072 635.97621,352.56498 C 637.78236,354.6437 636.57089,357.3995 636.13009,359.749 C 633.87922,367.76508 630.30551,375.32566 626.8527,382.87641 C 621.41867,394.50037 615.66771,405.97379 610.38508,417.66892 C 608.59919,416.41086 606.69902,415.34458 604.64375,414.61599 C 611.43873,399.53257 618.44184,384.1917 620.95532,367.70809 C 621.03126,365.29302 622.05799,362.29499 620.0785,360.38097 C 616.2619,356.26252 611.08897,353.87649 606.25367,351.22551 C 602.12634,347.27655 596.99759,344.54067 593.08088,340.3584 C 590.42385,337.73626 588.33061,334.63213 586.27815,331.53814 C 587.8157,330.24124 589.36427,328.95281 590.90702,327.65586 C 589.95015,326.59009 589.00038,325.5256 588.04058,324.47579 C 583.83946,328.17903 579.39614,332.01957 573.83783,333.43067 C 554.43644,338.26418 534.54484,340.81479 514.63743,342.41598 C 502.5267,366.21602 488.16021,389.15811 480.14585,414.79927 C 477.73318,414.47998 475.32212,414.18743 472.91005,413.91671 C 476.25375,403.52733 480.83665,393.60056 485.32341,383.67002 C 486.55949,380.81249 488.25196,378.04418 488.49444,374.86984 C 489.76153,363.37051 491.16943,351.88571 492.87936,340.44357 C 489.75943,335.86889 485.07989,332.58322 481.38104,328.48806 C 481.53373,329.35166 481.83915,331.07886 481.99186,331.94245 L 481.19294,329.29608 L 479.43418,329.04328 C 480.02623,328.72132 480.61757,328.39206 481.2082,328.05544 C 478.49211,326.61628 476.59809,324.15768 474.70257,321.82653 C 471.2921,317.42101 467.90702,312.93648 465.52987,307.86939 C 460.09388,297.24452 458.78057,285.0068 452.87843,274.5875 C 446.94455,263.88173 437.57826,255.6326 427.82632,248.47916 C 428.2685,243.41748 428.50171,238.1384 425.74871,233.62703 C 430.95591,230.83023 437.00305,230.90616 442.74633,230.67674 C 451.41574,230.90555 460.0802,231.4404 468.70678,232.35609 C 472.87957,226.45966 477.40054,220.71588 482.96023,216.05415 C 490.40293,209.65942 499.46208,205.25934 508.95366,202.87404 C 504.24084,209.72601 495.40881,211.95926 490.45219,218.56599 C 488.71931,220.75661 488.1916,223.5581 487.54759,226.20261 C 499.22627,225.06146 510.94247,224.30781 522.61724,223.13425 C 527.00717,221.82414 531.00308,219.42529 534.8583,216.99055 C 544.32733,210.88957 551.4786,201.62738 561.70843,196.64198 z "
       id="path2194" />
    <path
       style="fill:none;stroke:#ffffff;stroke-width:0.1;stroke-linecap:butt;stroke-linejoin:miter;stroke-miterlimit:10"
       d="M 607.47718,199.31076 C 611.94107,198.38379 616.46157,197.61334 621.03114,197.47382 C 620.38926,198.26216 619.73582,199.15065 618.61289,199.11497 C 614.92111,199.65527 611.18412,199.34048 607.47718,199.31076 z "
       id="path2200" />
    <path
       style="fill:#b47b26;fill-opacity:1;fill-rule:nonzero;stroke:none"
       d="M 607.47718,199.31076 C 611.94107,198.38379 616.46157,197.61334 621.03114,197.47382 C 620.38926,198.26216 619.73582,199.15065 618.61289,199.11497 C 614.92111,199.65527 611.18412,199.34048 607.47718,199.31076 z "
       id="path2202" />
    <path
       style="fill:none;stroke:#000000;stroke-width:0.1;stroke-linecap:butt;stroke-linejoin:miter;stroke-miterlimit:10"
       d="M 459.9786,237.91244 C 461.45457,239.08653 462.8713,240.34276 464.12927,241.75789 C 463.61305,241.82773 462.58059,241.96744 462.06437,242.03729 C 462.03851,243.05733 461.98681,245.09738 461.96095,246.11742 C 460.31141,244.65069 458.98439,242.90036 457.59986,241.19844 C 458.3869,240.10017 459.18295,239.00804 459.9786,237.91244 z "
       id="path2208" />
    <path
       style="fill:#000000;fill-rule:nonzero;stroke:none"
       d="M 459.9786,237.91244 C 461.45457,239.08653 462.8713,240.34276 464.12927,241.75789 C 463.61305,241.82773 462.58059,241.96744 462.06437,242.03729 C 462.03851,243.05733 461.98681,245.09738 461.96095,246.11742 C 460.31141,244.65069 458.98439,242.90036 457.59986,241.19844 C 458.3869,240.10017 459.18295,239.00804 459.9786,237.91244 z "
       id="path2210" />
    <path
       style="fill:none;stroke:#ffffff;stroke-width:0.1;stroke-linecap:butt;stroke-linejoin:miter;stroke-miterlimit:10"
       d="M 448.45288,324.59941 C 454.15281,321.80646 460.16728,319.68687 466.27105,317.96566 C 470.12414,322.36995 473.23133,327.46191 477.80352,331.23734 C 466.23573,334.87408 454.4544,337.83416 442.52465,340.00904 C 439.66418,347.36935 438.30587,355.52764 440.97549,363.17037 C 442.72691,364.13653 444.46148,365.14158 446.20466,366.13403 C 446.65333,370.02501 447.79122,373.91592 450.70649,376.6988 C 449.89058,378.23152 449.08171,379.76719 448.29158,381.3149 C 449.24874,381.74772 451.1631,382.61335 452.12027,383.04617 C 452.91003,381.53037 453.70808,380.01978 454.52357,378.51875 C 455.97769,378.8983 457.44096,379.30297 458.90951,379.66938 C 458.92385,383.18676 457.79715,387.21146 453.81088,387.89896 C 445.43872,379.24695 437.1455,370.05676 432.3148,358.88278 C 429.64938,352.68889 428.68713,345.23435 431.8549,339.04017 C 435.30195,332.31032 441.85745,327.88543 448.45288,324.59941 z "
       id="path2216" />
    <path
       style="fill:#cb8b2b;fill-opacity:1;fill-rule:nonzero;stroke:none"
       d="M 448.45288,324.59941 C 454.15281,321.80646 460.16728,319.68687 466.27105,317.96566 C 470.12414,322.36995 473.23133,327.46191 477.80352,331.23734 C 466.23573,334.87408 454.4544,337.83416 442.52465,340.00904 C 439.66418,347.36935 438.30587,355.52764 440.97549,363.17037 C 442.72691,364.13653 444.46148,365.14158 446.20466,366.13403 C 446.65333,370.02501 447.79122,373.91592 450.70649,376.6988 C 449.89058,378.23152 449.08171,379.76719 448.29158,381.3149 C 449.24874,381.74772 451.1631,382.61335 452.12027,383.04617 C 452.91003,381.53037 453.70808,380.01978 454.52357,378.51875 C 455.97769,378.8983 457.44096,379.30297 458.90951,379.66938 C 458.92385,383.18676 457.79715,387.21146 453.81088,387.89896 C 445.43872,379.24695 437.1455,370.05676 432.3148,358.88278 C 429.64938,352.68889 428.68713,345.23435 431.8549,339.04017 C 435.30195,332.31032 441.85745,327.88543 448.45288,324.59941 z "
       id="path2218" />
    <path
       style="fill:none;stroke:#ffffff;stroke-width:0.1;stroke-linecap:butt;stroke-linejoin:miter;stroke-miterlimit:10"
       d="M 572.51953,338.20833 C 576.13082,337.222 579.70326,336.00321 582.89715,334.00167 C 586.42353,339.8166 591.03057,344.99611 596.60559,348.92019 C 598.90844,350.6966 601.59533,352.14135 603.26048,354.61025 C 602.65989,358.45238 600.71617,361.89326 598.95333,365.30166 C 589.94088,381.72271 578.92593,397.26505 572.97853,415.18536 C 571.0878,414.8819 569.20173,414.58795 567.31814,414.31643 C 573.61578,401.80916 580.27761,389.3372 584.2097,375.83255 C 586.07013,369.09724 587.35217,361.83098 585.57751,354.94787 C 582.79165,348.32699 577.24574,343.43989 572.51953,338.20833 z "
       id="path2224" />
    <path
       style="fill:#cb8b2b;fill-opacity:1;fill-rule:nonzero;stroke:none"
       d="M 572.51953,338.20833 C 576.13082,337.222 579.70326,336.00321 582.89715,334.00167 C 586.42353,339.8166 591.03057,344.99611 596.60559,348.92019 C 598.90844,350.6966 601.59533,352.14135 603.26048,354.61025 C 602.65989,358.45238 600.71617,361.89326 598.95333,365.30166 C 589.94088,381.72271 578.92593,397.26505 572.97853,415.18536 C 571.0878,414.8819 569.20173,414.58795 567.31814,414.31643 C 573.61578,401.80916 580.27761,389.3372 584.2097,375.83255 C 586.07013,369.09724 587.35217,361.83098 585.57751,354.94787 C 582.79165,348.32699 577.24574,343.43989 572.51953,338.20833 z "
       id="path2226" />
    <path
       style="fill:none;stroke:#ffffff;stroke-width:0.1;stroke-linecap:butt;stroke-linejoin:miter;stroke-miterlimit:10"
       d="M 471.05352,422.22251 C 471.41354,419.9338 471.8159,417.65623 472.29222,415.39275 C 472.281,416.06365 472.25859,417.40548 472.24737,418.07636 C 474.54745,418.31266 476.85327,418.57224 479.15821,418.8225 C 479.08279,419.67126 478.93194,421.36877 478.85652,422.21752 C 476.25285,422.23082 473.65116,422.23574 471.05352,422.22251 z "
       id="path2232" />
    <path
       style="fill:#cb8b2b;fill-opacity:1;fill-rule:nonzero;stroke:none"
       d="M 471.05352,422.22251 C 471.41354,419.9338 471.8159,417.65623 472.29222,415.39275 C 472.281,416.06365 472.25859,417.40548 472.24737,418.07636 C 474.54745,418.31266 476.85327,418.57224 479.15821,418.8225 C 479.08279,419.67126 478.93194,421.36877 478.85652,422.21752 C 476.25285,422.23082 473.65116,422.23574 471.05352,422.22251 z "
       id="path2234" />
    <path
       style="fill:none;stroke:#ffffff;stroke-width:0.1;stroke-linecap:butt;stroke-linejoin:miter;stroke-miterlimit:10"
       d="M 564.63905,418.36584 C 567.34367,418.46988 570.03176,418.88965 572.6428,419.62947 C 570.90545,421.7592 568.00753,420.75875 565.71543,420.62867 C 565.30416,419.89409 564.94537,419.13979 564.63905,418.36584 z "
       id="path2240" />
    <path
       style="fill:#cb8b2b;fill-opacity:1;fill-rule:nonzero;stroke:none"
       d="M 564.63905,418.36584 C 567.34367,418.46988 570.03176,418.88965 572.6428,419.62947 C 570.90545,421.7592 568.00753,420.75875 565.71543,420.62867 C 565.30416,419.89409 564.94537,419.13979 564.63905,418.36584 z "
       id="path2242" />
    <path
       style="fill:none;stroke:#ffffff;stroke-width:0.1;stroke-linecap:butt;stroke-linejoin:miter;stroke-miterlimit:10"
       d="M 599.54333,425.05509 C 600.67013,422.8164 601.78492,420.57136 602.83306,418.29496 C 605.08479,419.36326 607.23019,420.63096 609.41186,421.84327 C 609.38508,423.41391 609.36357,424.98899 609.36537,426.56714 C 606.05239,426.47273 602.15582,427.71691 599.54333,425.05509 z "
       id="path2248" />
    <path
       style="fill:#cb8b2b;fill-opacity:1;fill-rule:nonzero;stroke:none"
       d="M 599.54333,425.05509 C 600.67013,422.8164 601.78492,420.57136 602.83306,418.29496 C 605.08479,419.36326 607.23019,420.63096 609.41186,421.84327 C 609.38508,423.41391 609.36357,424.98899 609.36537,426.56714 C 606.05239,426.47273 602.15582,427.71691 599.54333,425.05509 z "
       id="path2250" />
    <path
       style="fill:none;stroke:#000000;stroke-width:0.1;stroke-linecap:butt;stroke-linejoin:miter;stroke-miterlimit:10"
       d="M 429.89387,432.75501 C 438.23016,428.19886 447.71868,426.37027 457.10617,425.66027 C 457.12341,428.77308 457.1193,431.88741 457.12275,435.00407 C 452.10447,436.5029 447.24356,438.46278 442.48289,440.63298 C 442.37852,441.09745 442.16978,442.02636 442.06541,442.49079 C 445.95416,442.69427 449.87564,442.51196 453.69743,441.71619 C 469.92675,438.66401 485.69041,432.56624 502.37126,432.36431 C 503.77542,435.09601 505.10298,438.97092 502.20036,441.23647 C 497.26228,444.58052 490.92143,442.79535 485.36428,443.52312 C 487.04794,446.04569 490.12672,446.78614 492.62527,448.22053 C 497.80415,450.66712 502.36329,454.16608 506.80485,457.73985 C 505.35321,460.55324 503.16789,462.86381 500.61004,464.70031 C 483.49797,456.91545 464.64173,451.46229 445.68275,453.69382 C 423.7099,456.28339 403.96933,467.18717 384.77879,477.46693 C 393.06307,480.46547 401.98907,480.58458 410.68481,480.14644 C 433.07023,478.64942 455.10095,472.99532 477.62667,473.46042 C 486.02627,473.64348 494.45871,475.04833 502.25402,478.26482 C 501.23133,480.31765 501.04361,482.59211 500.99163,484.84927 C 493.38191,485.75474 485.80374,486.89745 478.19685,487.81408 C 478.82089,489.53478 479.36909,491.41694 480.9071,492.58084 C 484.55921,495.61309 488.06626,498.84092 490.98994,502.60394 C 488.57513,504.13167 486.39202,505.99952 483.96736,507.50257 C 475.11789,504.40402 467.39013,498.33706 462.62283,490.22521 C 457.71168,490.49638 452.83012,491.11254 447.92442,491.42297 C 447.8954,495.49281 448.78399,499.46322 449.74331,503.39437 C 449.10546,504.41491 448.56903,505.48881 448.13398,506.61609 C 445.63697,507.04122 443.21125,508.03838 440.70378,508.23661 C 436.48225,504.24077 433.42497,499.20792 431.94416,493.58228 C 407.16026,493.67806 382.45402,491.52056 357.7118,490.44901 C 360.25044,494.57162 361.31791,499.35326 361.31245,504.16465 C 358.70776,504.8637 356.2072,505.88784 353.84817,507.19126 C 355.81839,512.89889 361.03189,516.5494 365.97741,519.54131 C 378.94868,526.68679 394.43354,526.03847 408.68859,524.43476 C 432.31619,521.94251 455.96134,514.64807 479.8499,518.4376 C 493.97463,520.5243 506.71827,529.64831 513.13519,542.41756 C 515.07457,546.9905 518.4907,550.61695 521.28875,554.64912 C 521.22001,555.37151 521.08252,556.81631 521.01377,557.5387 C 516.23875,557.92153 511.26155,558.41573 506.88992,555.9757 C 512.79916,571.06364 510.62603,588.11141 517.31794,602.96418 C 518.60377,606.37728 522.05754,608.90064 522.02546,612.76938 C 521.79545,618.00218 519.98042,622.99758 518.18414,627.86794 C 511.60948,644.77193 503.02668,660.78568 495.45437,677.24544 C 494.05485,680.42275 492.3466,683.50238 491.46415,686.8828 C 490.94938,690.32093 491.31793,693.81404 491.29425,697.28064 C 486.42892,697.32439 481.5462,698.00375 476.69583,697.42107 C 474.31199,696.24627 472.24229,694.28635 471.09832,691.87447 C 471.51124,689.12083 473.27169,686.80884 474.35295,684.28942 C 481.78941,668.73349 488.94998,652.9099 493.4223,636.21 C 494.53811,631.58431 495.73469,626.85366 495.46029,622.06562 C 492.28839,618.74447 488.20138,616.52709 484.29359,614.20968 C 481.21263,624.54901 474.92135,633.47202 469.66313,642.77262 C 460.89735,658.11754 450.83493,673.5523 448.18986,691.36977 C 444.17797,691.23861 440.15818,690.86924 436.15315,691.29059 C 434.64402,689.41081 433.13263,687.53832 431.64706,685.65014 C 440.4925,667.15231 451.46914,649.2544 455.82138,628.99215 C 456.725,622.71741 457.9291,615.29225 453.46748,610.03123 C 449.42146,604.77652 445.07109,599.64122 439.99279,595.36748 C 421.36824,598.81289 402.5798,601.72672 383.65568,603.15312 C 372.98529,623.45214 361.50813,643.3798 352.50061,664.5044 C 348.89068,673.48471 344.87895,682.71807 344.94477,692.5775 C 339.51788,692.55108 334.09159,692.61447 328.66671,692.53271 C 326.82367,687.10916 328.6961,681.44886 330.33285,676.23812 C 334.14434,664.80755 339.17532,653.83692 344.15268,642.88078 C 345.42871,639.97125 347.11624,637.11413 347.27745,633.8669 C 348.55166,621.79659 350.14582,609.76579 351.77482,597.74092 C 349.1846,595.00938 346.50051,592.37228 343.73004,589.82943 C 330.51468,593.98629 317.10296,597.53373 303.49659,600.15879 C 301.21533,606.22944 300.38159,612.87966 302.15451,619.20601 C 304.18565,620.39025 306.24275,621.534 308.3656,622.55874 C 309.12213,626.05426 308.78564,630.21944 311.45791,632.98159 C 314.36564,635.70296 318.54463,636.07305 322.29972,636.66317 C 322.78984,641.43787 323.2252,647.02185 319.74624,650.85691 C 317.53067,653.41816 314.02571,653.95094 310.83773,654.1884 C 301.57981,644.71958 292.4638,634.78762 286.37184,622.91586 C 282.70312,615.57013 280.22138,607.0617 282.20042,598.8657 C 284.0731,590.53391 290.29582,583.96049 297.2424,579.38933 C 305.61251,573.91361 315.0841,570.36417 324.66227,567.64216 C 322.71569,563.91207 320.73721,560.1882 319.21363,556.26298 C 315.04133,545.9273 313.2395,534.65835 307.64222,524.90722 C 300.91246,512.95322 290.13469,504.01271 279.16018,496.10571 C 279.18844,492.6556 279.50665,489.21737 279.52093,485.77195 C 279.52749,482.64537 277.54959,480.0376 276.1555,477.39312 C 278.38758,472.64042 283.81399,471.06945 288.59901,470.37889 C 301.46412,468.71453 314.45935,470.14945 327.31167,471.2378 C 333.66003,462.13482 341.50088,453.925 350.9618,448.03249 C 359.63832,442.56288 369.45794,439.20355 379.40522,436.90942 C 379.39834,440.15415 379.27249,443.63685 377.25062,446.35358 C 371.92886,453.98903 361.99359,456.48394 356.52961,464.00497 C 366.28086,463.12461 376.04344,462.37992 385.7982,461.52898 C 390.46614,461.46769 394.46289,458.74363 398.41404,456.58058 C 409.8757,449.93184 418.11763,438.93505 429.89387,432.75501 z "
       id="path2252" />
    <path
       style="fill:#000000;fill-rule:nonzero;stroke:none"
       d="M 429.89387,432.75501 C 438.23016,428.19886 447.71868,426.37027 457.10617,425.66027 C 457.12341,428.77308 457.1193,431.88741 457.12275,435.00407 C 452.10447,436.5029 447.24356,438.46278 442.48289,440.63298 C 442.37852,441.09745 442.16978,442.02636 442.06541,442.49079 C 445.95416,442.69427 449.87564,442.51196 453.69743,441.71619 C 469.92675,438.66401 485.69041,432.56624 502.37126,432.36431 C 503.77542,435.09601 505.10298,438.97092 502.20036,441.23647 C 497.26228,444.58052 490.92143,442.79535 485.36428,443.52312 C 487.04794,446.04569 490.12672,446.78614 492.62527,448.22053 C 497.80415,450.66712 502.36329,454.16608 506.80485,457.73985 C 505.35321,460.55324 503.16789,462.86381 500.61004,464.70031 C 483.49797,456.91545 464.64173,451.46229 445.68275,453.69382 C 423.7099,456.28339 403.96933,467.18717 384.77879,477.46693 C 393.06307,480.46547 401.98907,480.58458 410.68481,480.14644 C 433.07023,478.64942 455.10095,472.99532 477.62667,473.46042 C 486.02627,473.64348 494.45871,475.04833 502.25402,478.26482 C 501.23133,480.31765 501.04361,482.59211 500.99163,484.84927 C 493.38191,485.75474 485.80374,486.89745 478.19685,487.81408 C 478.82089,489.53478 479.36909,491.41694 480.9071,492.58084 C 484.55921,495.61309 488.06626,498.84092 490.98994,502.60394 C 488.57513,504.13167 486.39202,505.99952 483.96736,507.50257 C 475.11789,504.40402 467.39013,498.33706 462.62283,490.22521 C 457.71168,490.49638 452.83012,491.11254 447.92442,491.42297 C 447.8954,495.49281 448.78399,499.46322 449.74331,503.39437 C 449.10546,504.41491 448.56903,505.48881 448.13398,506.61609 C 445.63697,507.04122 443.21125,508.03838 440.70378,508.23661 C 436.48225,504.24077 433.42497,499.20792 431.94416,493.58228 C 407.16026,493.67806 382.45402,491.52056 357.7118,490.44901 C 360.25044,494.57162 361.31791,499.35326 361.31245,504.16465 C 358.70776,504.8637 356.2072,505.88784 353.84817,507.19126 C 355.81839,512.89889 361.03189,516.5494 365.97741,519.54131 C 378.94868,526.68679 394.43354,526.03847 408.68859,524.43476 C 432.31619,521.94251 455.96134,514.64807 479.8499,518.4376 C 493.97463,520.5243 506.71827,529.64831 513.13519,542.41756 C 515.07457,546.9905 518.4907,550.61695 521.28875,554.64912 C 521.22001,555.37151 521.08252,556.81631 521.01377,557.5387 C 516.23875,557.92153 511.26155,558.41573 506.88992,555.9757 C 512.79916,571.06364 510.62603,588.11141 517.31794,602.96418 C 518.60377,606.37728 522.05754,608.90064 522.02546,612.76938 C 521.79545,618.00218 519.98042,622.99758 518.18414,627.86794 C 511.60948,644.77193 503.02668,660.78568 495.45437,677.24544 C 494.05485,680.42275 492.3466,683.50238 491.46415,686.8828 C 490.94938,690.32093 491.31793,693.81404 491.29425,697.28064 C 486.42892,697.32439 481.5462,698.00375 476.69583,697.42107 C 474.31199,696.24627 472.24229,694.28635 471.09832,691.87447 C 471.51124,689.12083 473.27169,686.80884 474.35295,684.28942 C 481.78941,668.73349 488.94998,652.9099 493.4223,636.21 C 494.53811,631.58431 495.73469,626.85366 495.46029,622.06562 C 492.28839,618.74447 488.20138,616.52709 484.29359,614.20968 C 481.21263,624.54901 474.92135,633.47202 469.66313,642.77262 C 460.89735,658.11754 450.83493,673.5523 448.18986,691.36977 C 444.17797,691.23861 440.15818,690.86924 436.15315,691.29059 C 434.64402,689.41081 433.13263,687.53832 431.64706,685.65014 C 440.4925,667.15231 451.46914,649.2544 455.82138,628.99215 C 456.725,622.71741 457.9291,615.29225 453.46748,610.03123 C 449.42146,604.77652 445.07109,599.64122 439.99279,595.36748 C 421.36824,598.81289 402.5798,601.72672 383.65568,603.15312 C 372.98529,623.45214 361.50813,643.3798 352.50061,664.5044 C 348.89068,673.48471 344.87895,682.71807 344.94477,692.5775 C 339.51788,692.55108 334.09159,692.61447 328.66671,692.53271 C 326.82367,687.10916 328.6961,681.44886 330.33285,676.23812 C 334.14434,664.80755 339.17532,653.83692 344.15268,642.88078 C 345.42871,639.97125 347.11624,637.11413 347.27745,633.8669 C 348.55166,621.79659 350.14582,609.76579 351.77482,597.74092 C 349.1846,595.00938 346.50051,592.37228 343.73004,589.82943 C 330.51468,593.98629 317.10296,597.53373 303.49659,600.15879 C 301.21533,606.22944 300.38159,612.87966 302.15451,619.20601 C 304.18565,620.39025 306.24275,621.534 308.3656,622.55874 C 309.12213,626.05426 308.78564,630.21944 311.45791,632.98159 C 314.36564,635.70296 318.54463,636.07305 322.29972,636.66317 C 322.78984,641.43787 323.2252,647.02185 319.74624,650.85691 C 317.53067,653.41816 314.02571,653.95094 310.83773,654.1884 C 301.57981,644.71958 292.4638,634.78762 286.37184,622.91586 C 282.70312,615.57013 280.22138,607.0617 282.20042,598.8657 C 284.0731,590.53391 290.29582,583.96049 297.2424,579.38933 C 305.61251,573.91361 315.0841,570.36417 324.66227,567.64216 C 322.71569,563.91207 320.73721,560.1882 319.21363,556.26298 C 315.04133,545.9273 313.2395,534.65835 307.64222,524.90722 C 300.91246,512.95322 290.13469,504.01271 279.16018,496.10571 C 279.18844,492.6556 279.50665,489.21737 279.52093,485.77195 C 279.52749,482.64537 277.54959,480.0376 276.1555,477.39312 C 278.38758,472.64042 283.81399,471.06945 288.59901,470.37889 C 301.46412,468.71453 314.45935,470.14945 327.31167,471.2378 C 333.66003,462.13482 341.50088,453.925 350.9618,448.03249 C 359.63832,442.56288 369.45794,439.20355 379.40522,436.90942 C 379.39834,440.15415 379.27249,443.63685 377.25062,446.35358 C 371.92886,453.98903 361.99359,456.48394 356.52961,464.00497 C 366.28086,463.12461 376.04344,462.37992 385.7982,461.52898 C 390.46614,461.46769 394.46289,458.74363 398.41404,456.58058 C 409.8757,449.93184 418.11763,438.93505 429.89387,432.75501 z "
       id="path2254" />
    <path
       style="fill:none;stroke:#ffffff;stroke-width:0.1;stroke-linecap:butt;stroke-linejoin:miter;stroke-miterlimit:10"
       d="M 428.31317,438.52819 C 435.81327,433.65028 444.64451,430.93861 453.54454,430.33 C 453.22885,430.76803 452.59745,431.64411 452.28176,432.08215 C 447.92768,433.83367 443.53334,435.49395 439.27276,437.47102 C 438.42532,439.89716 437.60226,442.33306 436.82479,444.78501 C 441.7469,447.44367 447.51904,446.87546 452.84518,446.09602 C 467.80793,443.54158 482.17889,438.026 497.36611,436.71053 C 498.53759,436.43113 499.58332,436.99665 500.47933,437.71665 C 494.62944,440.31973 488.0838,438.76995 481.91534,439.48048 C 481.80503,442.15702 481.80078,444.84084 481.89163,447.52262 C 488.59581,450.79473 495.43734,453.96237 501.3072,458.6469 C 500.84163,459.04648 500.39349,459.46369 499.96276,459.89857 C 480.96466,451.30114 459.54078,446.43685 438.77162,450.51528 C 416.13023,454.8965 396.04246,466.8489 375.83184,477.35767 C 386.03219,484.29009 398.80595,485.01897 410.73877,484.28883 C 432.15443,482.92534 453.20092,477.70981 474.71519,477.55314 C 482.2882,477.73859 490.11662,478.10984 497.22255,480.9894 C 489.56933,482.33171 481.82211,483.04342 474.14265,484.21035 C 474.197,487.55486 474.14273,491.32464 476.50228,493.99514 C 479.12313,496.92719 482.46647,499.11475 485.0525,502.09791 C 482.57544,503.23471 480.4389,501.20986 478.33552,500.21988 C 472.36967,497.03303 468.26924,491.48954 464.76684,485.87734 C 457.81784,486.33381 450.89488,487.08129 443.95193,487.59063 C 443.69757,492.76357 443.92326,497.98579 445.36981,502.99169 C 444.26419,503.20635 443.16128,503.42066 442.06111,503.6346 C 438.15708,499.77186 436.66023,494.45835 434.82153,489.46179 C 406.93743,489.74074 379.16159,486.85881 351.30964,486.16729 C 352.16113,491.54446 356.78854,495.35479 357.1197,500.92163 C 355.26867,501.80787 353.42732,502.71309 351.60624,503.65807 C 347.4895,499.80233 341.74641,499.35008 336.50257,498.23922 C 336.01606,499.55865 335.53056,500.88173 335.04605,502.20845 C 339.1939,503.38989 343.88702,503.22695 347.50879,505.8393 C 350.22943,507.78197 350.70584,511.35289 352.60536,513.91032 C 360.70639,523.60442 373.26567,528.51091 385.65072,529.33174 C 406.60148,530.79946 427.12214,525.39139 447.76734,522.83912 C 461.7178,521.11529 476.55842,520.05045 489.80329,525.70748 C 498.91095,529.51245 505.95755,537.14196 510.25053,545.90821 C 511.59506,548.88523 513.6202,551.45862 515.58947,554.04281 C 509.51495,553.96256 504.82353,549.61359 501.71855,544.80145 C 500.57641,545.56791 499.43792,546.33785 498.30305,547.11125 C 501.16459,551.20602 502.36106,556.07552 504.11558,560.68437 C 509.02751,576.64302 506.71186,594.82575 516.15267,609.30496 C 519.47902,612.91217 516.87356,617.89765 515.86377,621.94805 C 508.26811,643.20728 497.02743,662.89972 487.98374,683.54128 C 485.87139,681.93689 483.56038,680.61515 480.98417,679.94255 C 485.9113,669.66171 490.38404,659.14916 494.10598,648.37048 C 496.88902,640.06654 499.37417,631.53798 499.80926,622.74169 C 500.09004,620.8213 498.69511,619.29492 497.40394,618.11152 C 493.831,614.87269 489.68699,612.30433 485.3237,610.28042 C 482.15548,608.97066 480.19006,605.96233 477.29063,604.22295 C 470.48765,599.73983 464.75877,593.73226 460.63049,586.70872 C 462.4131,585.19459 464.17829,583.66063 465.9048,582.08329 C 464.93623,581.07074 463.973,580.06675 463.00617,579.07035 C 458.24108,583.34354 453.13836,587.71935 446.75138,589.23936 C 425.17968,594.554 403.08422,597.41225 380.96261,599.20698 C 372.47865,615.65789 363.24507,631.72281 355.25868,648.43121 C 350.32367,658.74362 345.50549,669.19676 342.44511,680.24574 C 339.80383,679.88137 337.16551,679.49871 334.53486,679.0979 C 334.22459,680.46572 333.81745,681.81324 333.51854,683.19483 C 336.14505,683.66602 338.79727,683.99445 341.44772,684.33658 C 341.26777,685.70386 341.09155,687.07753 340.92227,688.46012 C 337.88542,688.45417 334.84953,688.46491 331.81598,688.42212 C 332.19879,685.59534 332.81388,682.81513 333.37701,680.02987 C 337.74951,666.98505 343.42543,654.43824 349.16589,641.9531 C 350.02551,639.99781 351.03939,638.04473 351.2263,635.88677 C 352.73596,622.71806 354.17144,609.53271 356.30873,596.44847 C 352.27301,592.06148 347.90303,588.00852 343.62881,583.86335 C 336.02313,577.62191 330.32501,569.24582 325.72227,560.62653 C 319.54631,548.57346 318.05717,534.67377 311.29554,522.88096 C 304.64624,510.99956 294.15582,501.92525 283.34285,493.93496 C 283.71519,488.30782 284.39195,482.26318 280.99639,477.34052 C 284.4783,475.1554 288.58573,474.3655 292.63337,474.11763 C 304.92117,473.26996 317.20918,474.58529 329.45201,475.48694 C 334.19484,468.42661 339.8025,461.90699 346.34777,456.45742 C 354.59787,449.6567 364.53259,445.14991 374.82081,442.42476 C 370.15295,450.37276 360.3558,452.7864 354.62902,459.72777 C 352.35902,462.15198 351.50438,465.44068 350.80528,468.59516 C 363.74885,467.5736 376.69624,466.52888 389.62118,465.30112 C 394.31288,463.934 398.58775,461.37246 402.72479,458.81589 C 411.96893,452.97025 419.15762,444.48758 428.31317,438.52819 z "
       id="path2256" />
    <path
       style="fill:url(#radialGradient4307);fill-opacity:1;fill-rule:nonzero;stroke:none"
       d="M 428.31317,438.52819 C 435.81327,433.65028 444.64451,430.93861 453.54454,430.33 C 453.22885,430.76803 452.59745,431.64411 452.28176,432.08215 C 447.92768,433.83367 443.53334,435.49395 439.27276,437.47102 C 438.42532,439.89716 437.60226,442.33306 436.82479,444.78501 C 441.7469,447.44367 447.51904,446.87546 452.84518,446.09602 C 467.80793,443.54158 482.17889,438.026 497.36611,436.71053 C 498.53759,436.43113 499.58332,436.99665 500.47933,437.71665 C 494.62944,440.31973 488.0838,438.76995 481.91534,439.48048 C 481.80503,442.15702 481.80078,444.84084 481.89163,447.52262 C 488.59581,450.79473 495.43734,453.96237 501.3072,458.6469 C 500.84163,459.04648 500.39349,459.46369 499.96276,459.89857 C 480.96466,451.30114 459.54078,446.43685 438.77162,450.51528 C 416.13023,454.8965 396.04246,466.8489 375.83184,477.35767 C 386.03219,484.29009 398.80595,485.01897 410.73877,484.28883 C 432.15443,482.92534 453.20092,477.70981 474.71519,477.55314 C 482.2882,477.73859 490.11662,478.10984 497.22255,480.9894 C 489.56933,482.33171 481.82211,483.04342 474.14265,484.21035 C 474.197,487.55486 474.14273,491.32464 476.50228,493.99514 C 479.12313,496.92719 482.46647,499.11475 485.0525,502.09791 C 482.57544,503.23471 480.4389,501.20986 478.33552,500.21988 C 472.36967,497.03303 468.26924,491.48954 464.76684,485.87734 C 457.81784,486.33381 450.89488,487.08129 443.95193,487.59063 C 443.69757,492.76357 443.92326,497.98579 445.36981,502.99169 C 444.26419,503.20635 443.16128,503.42066 442.06111,503.6346 C 438.15708,499.77186 436.66023,494.45835 434.82153,489.46179 C 406.93743,489.74074 379.16159,486.85881 351.30964,486.16729 C 352.16113,491.54446 356.78854,495.35479 357.1197,500.92163 C 355.26867,501.80787 353.42732,502.71309 351.60624,503.65807 C 347.4895,499.80233 341.74641,499.35008 336.50257,498.23922 C 336.01606,499.55865 335.53056,500.88173 335.04605,502.20845 C 339.1939,503.38989 343.88702,503.22695 347.50879,505.8393 C 350.22943,507.78197 350.70584,511.35289 352.60536,513.91032 C 360.70639,523.60442 373.26567,528.51091 385.65072,529.33174 C 406.60148,530.79946 427.12214,525.39139 447.76734,522.83912 C 461.7178,521.11529 476.55842,520.05045 489.80329,525.70748 C 498.91095,529.51245 505.95755,537.14196 510.25053,545.90821 C 511.59506,548.88523 513.6202,551.45862 515.58947,554.04281 C 509.51495,553.96256 504.82353,549.61359 501.71855,544.80145 C 500.57641,545.56791 499.43792,546.33785 498.30305,547.11125 C 501.16459,551.20602 502.36106,556.07552 504.11558,560.68437 C 509.02751,576.64302 506.71186,594.82575 516.15267,609.30496 C 519.47902,612.91217 516.87356,617.89765 515.86377,621.94805 C 508.26811,643.20728 497.02743,662.89972 487.98374,683.54128 C 485.87139,681.93689 483.56038,680.61515 480.98417,679.94255 C 485.9113,669.66171 490.38404,659.14916 494.10598,648.37048 C 496.88902,640.06654 499.37417,631.53798 499.80926,622.74169 C 500.09004,620.8213 498.69511,619.29492 497.40394,618.11152 C 493.831,614.87269 489.68699,612.30433 485.3237,610.28042 C 482.15548,608.97066 480.19006,605.96233 477.29063,604.22295 C 470.48765,599.73983 464.75877,593.73226 460.63049,586.70872 C 462.4131,585.19459 464.17829,583.66063 465.9048,582.08329 C 464.93623,581.07074 463.973,580.06675 463.00617,579.07035 C 458.24108,583.34354 453.13836,587.71935 446.75138,589.23936 C 425.17968,594.554 403.08422,597.41225 380.96261,599.20698 C 372.47865,615.65789 363.24507,631.72281 355.25868,648.43121 C 350.32367,658.74362 345.50549,669.19676 342.44511,680.24574 C 339.80383,679.88137 337.16551,679.49871 334.53486,679.0979 C 334.22459,680.46572 333.81745,681.81324 333.51854,683.19483 C 336.14505,683.66602 338.79727,683.99445 341.44772,684.33658 C 341.26777,685.70386 341.09155,687.07753 340.92227,688.46012 C 337.88542,688.45417 334.84953,688.46491 331.81598,688.42212 C 332.19879,685.59534 332.81388,682.81513 333.37701,680.02987 C 337.74951,666.98505 343.42543,654.43824 349.16589,641.9531 C 350.02551,639.99781 351.03939,638.04473 351.2263,635.88677 C 352.73596,622.71806 354.17144,609.53271 356.30873,596.44847 C 352.27301,592.06148 347.90303,588.00852 343.62881,583.86335 C 336.02313,577.62191 330.32501,569.24582 325.72227,560.62653 C 319.54631,548.57346 318.05717,534.67377 311.29554,522.88096 C 304.64624,510.99956 294.15582,501.92525 283.34285,493.93496 C 283.71519,488.30782 284.39195,482.26318 280.99639,477.34052 C 284.4783,475.1554 288.58573,474.3655 292.63337,474.11763 C 304.92117,473.26996 317.20918,474.58529 329.45201,475.48694 C 334.19484,468.42661 339.8025,461.90699 346.34777,456.45742 C 354.59787,449.6567 364.53259,445.14991 374.82081,442.42476 C 370.15295,450.37276 360.3558,452.7864 354.62902,459.72777 C 352.35902,462.15198 351.50438,465.44068 350.80528,468.59516 C 363.74885,467.5736 376.69624,466.52888 389.62118,465.30112 C 394.31288,463.934 398.58775,461.37246 402.72479,458.81589 C 411.96893,452.97025 419.15762,444.48758 428.31317,438.52819 z "
       id="path2258" />
    <path
       style="fill:none;stroke:#000000;stroke-width:0.1;stroke-linecap:butt;stroke-linejoin:miter;stroke-miterlimit:10"
       d="M 319.62939,482.24703 C 321.13479,483.54877 322.64531,484.85015 324.10423,486.21219 L 322.08746,486.57979 C 322.0442,488.02911 321.98442,489.48159 321.90809,490.93724 C 320.0588,489.33126 318.62432,487.34432 317.0783,485.46733 C 317.92782,484.39124 318.77856,483.31742 319.62939,482.24703 z "
       id="path2260" />
    <path
       style="fill:#000000;fill-rule:nonzero;stroke:none"
       d="M 319.62939,482.24703 C 321.13479,483.54877 322.64531,484.85015 324.10423,486.21219 L 322.08746,486.57979 C 322.0442,488.02911 321.98442,489.48159 321.90809,490.93724 C 320.0588,489.33126 318.62432,487.34432 317.0783,485.46733 C 317.92782,484.39124 318.77856,483.31742 319.62939,482.24703 z "
       id="path2262" />
    <path
       style="fill:none;stroke:#ffffff;stroke-width:0.1;stroke-linecap:butt;stroke-linejoin:miter;stroke-miterlimit:10"
       d="M 290.26585,591.35594 C 299.28762,580.0387 313.709,575.32174 327.04094,571.20539 C 330.94116,576.70509 335.01495,582.12885 340.0366,586.6732 C 326.97282,590.53703 313.80317,594.13183 300.36537,596.45175 C 297.08693,604.49889 295.86247,613.44921 298.49165,621.8747 C 300.44209,623.17098 302.96719,623.96619 304.47863,625.73822 C 305.19165,629.89578 306.14868,634.28419 309.60691,637.10381 C 308.64741,638.94962 307.74287,640.82188 306.86897,642.7174 C 308.1555,643.22074 309.4427,643.73331 310.73056,644.25511 C 311.59062,642.49142 312.49951,640.75663 313.44438,639.0438 C 315.15901,639.5078 316.88005,639.96833 318.6035,640.4313 C 318.91966,644.56693 317.36633,649.28776 312.76512,650.11155 C 303.1969,640.40207 293.86004,629.94784 288.40155,617.29805 C 284.67376,609.06292 284.42199,598.69248 290.26585,591.35594 z "
       id="path2264" />
    <path
       style="fill:#cb8b2b;fill-opacity:1;fill-rule:nonzero;stroke:none"
       d="M 290.26585,591.35594 C 299.28762,580.0387 313.709,575.32174 327.04094,571.20539 C 330.94116,576.70509 335.01495,582.12885 340.0366,586.6732 C 326.97282,590.53703 313.80317,594.13183 300.36537,596.45175 C 297.08693,604.49889 295.86247,613.44921 298.49165,621.8747 C 300.44209,623.17098 302.96719,623.96619 304.47863,625.73822 C 305.19165,629.89578 306.14868,634.28419 309.60691,637.10381 C 308.64741,638.94962 307.74287,640.82188 306.86897,642.7174 C 308.1555,643.22074 309.4427,643.73331 310.73056,644.25511 C 311.59062,642.49142 312.49951,640.75663 313.44438,639.0438 C 315.15901,639.5078 316.88005,639.96833 318.6035,640.4313 C 318.91966,644.56693 317.36633,649.28776 312.76512,650.11155 C 303.1969,640.40207 293.86004,629.94784 288.40155,617.29805 C 284.67376,609.06292 284.42199,598.69248 290.26585,591.35594 z "
       id="path2266" />
    <path
       style="fill:none;stroke:#ffffff;stroke-width:0.1;stroke-linecap:butt;stroke-linejoin:miter;stroke-miterlimit:10"
       d="M 444.96315,594.05162 C 449.2671,593.07233 453.48768,591.61303 457.19693,589.17114 C 461.15058,595.72472 466.30809,601.57788 472.56352,606.02248 C 475.2008,608.03476 478.30256,609.67423 480.12722,612.55512 C 479.57437,616.9367 477.25814,620.81031 475.29576,624.6858 C 465.1791,643.09137 452.89154,660.53316 446.16163,680.60282 C 443.87201,680.24191 441.57627,679.94042 439.29202,679.59609 C 446.69136,664.90828 454.60746,650.26354 458.89497,634.29084 C 460.57255,627.07855 462.04492,619.20687 459.49128,612.02798 C 455.96705,605.10305 450.22567,599.65194 444.96315,594.05162 z "
       id="path2268" />
    <path
       style="fill:#cb8b2b;fill-opacity:1;fill-rule:nonzero;stroke:none"
       d="M 444.96315,594.05162 C 449.2671,593.07233 453.48768,591.61303 457.19693,589.17114 C 461.15058,595.72472 466.30809,601.57788 472.56352,606.02248 C 475.2008,608.03476 478.30256,609.67423 480.12722,612.55512 C 479.57437,616.9367 477.25814,620.81031 475.29576,624.6858 C 465.1791,643.09137 452.89154,660.53316 446.16163,680.60282 C 443.87201,680.24191 441.57627,679.94042 439.29202,679.59609 C 446.69136,664.90828 454.60746,650.26354 458.89497,634.29084 C 460.57255,627.07855 462.04492,619.20687 459.49128,612.02798 C 455.96705,605.10305 450.22567,599.65194 444.96315,594.05162 z "
       id="path2270" />
    <path
       style="fill:none;stroke:#ffffff;stroke-width:0.1;stroke-linecap:butt;stroke-linejoin:miter;stroke-miterlimit:10"
       d="M 475.47018,691.63202 C 476.73828,688.80561 478.14775,686.04673 479.42523,683.22867 C 481.93711,684.76974 484.4479,686.32602 487.08842,687.66018 C 487.05952,689.53577 487.04805,691.41469 487.05839,693.30268 C 483.16497,693.2484 478.62274,694.6595 475.47018,691.63202 z "
       id="path2272" />
    <path
       style="fill:#cb8b2b;fill-opacity:1;fill-rule:nonzero;stroke:none"
       d="M 475.47018,691.63202 C 476.73828,688.80561 478.14775,686.04673 479.42523,683.22867 C 481.93711,684.76974 484.4479,686.32602 487.08842,687.66018 C 487.05952,689.53577 487.04805,691.41469 487.05839,693.30268 C 483.16497,693.2484 478.62274,694.6595 475.47018,691.63202 z "
       id="path2274" />
    <path
       style="fill:none;stroke:#ffffff;stroke-width:0.1;stroke-linecap:butt;stroke-linejoin:miter;stroke-miterlimit:10"
       d="M 437.97048,686.92864 C 437.24966,685.8488 435.72868,684.62302 437.49165,683.69152 C 440.07901,683.90174 442.65206,684.29544 445.23179,684.62856 C 445.044,685.44143 444.84445,686.26044 444.62615,687.0772 C 442.40606,686.97615 440.18713,686.90313 437.97048,686.92864 z "
       id="path2276" />
    <path
       style="fill:#cb8b2b;fill-opacity:1;fill-rule:nonzero;stroke:none"
       d="M 437.97048,686.92864 C 437.24966,685.8488 435.72868,684.62302 437.49165,683.69152 C 440.07901,683.90174 442.65206,684.29544 445.23179,684.62856 C 445.044,685.44143 444.84445,686.26044 444.62615,687.0772 C 442.40606,686.97615 440.18713,686.90313 437.97048,686.92864 z "
       id="path2278" />
  </g>
</svg>
